<?xml version="1.0" encoding="UTF-8" standalone="no"?>
<svg
   xmlns:dc="http://purl.org/dc/elements/1.1/"
   xmlns:cc="http://creativecommons.org/ns#"
   xmlns:rdf="http://www.w3.org/1999/02/22-rdf-syntax-ns#"
   xmlns:svg="http://www.w3.org/2000/svg"
   xmlns="http://www.w3.org/2000/svg"
   xmlns:xlink="http://www.w3.org/1999/xlink"
   xmlns:sodipodi="http://sodipodi.sourceforge.net/DTD/sodipodi-0.dtd"
   xmlns:inkscape="http://www.inkscape.org/namespaces/inkscape"
   sodipodi:docname="entities-animation.svg"
   inkscape:version="0.92.1 r15371"
   id="svg8"
   version="1.1"
   viewBox="0 0 82.150986 60.005001"
   height="60.005001mm"
   width="82.150986mm">
  <defs
     id="defs2">
    <inkscape:path-effect
       css_properties=""
       attributes=""
       is_visible="true"
       effect="clone_original"
       linkeditem="#path1303-8"
       method="bsplinespiro"
       allow_transforms="false"
       id="path-effect936"
       lpeversion="1" />
    <inkscape:path-effect
       css_properties=""
       attributes=""
       is_visible="true"
       lpeversion="1"
       id="path-effect1367"
       allow_transforms="false"
       method="bsplinespiro"
       linkeditem="#path1303-8"
       effect="clone_original" />
    <rect
       id="rect853"
       height="19.999998"
       width="35"
       y="19.999998"
       x="22.499998" />
    <rect
       x="22.499998"
       y="19.999998"
       width="35"
       height="19.999998"
       id="rect853-6" />
    <rect
       x="22.499998"
       y="19.999998"
       width="35"
       height="19.999998"
       id="rect866" />
    <rect
       id="rect853-6-5"
       height="19.999998"
       width="35"
       y="19.999998"
       x="22.499998" />
    <rect
       id="rect895"
       height="19.999998"
       width="35"
       y="19.999998"
       x="22.499998" />
    <rect
       x="22.499998"
       y="19.999998"
       width="35"
       height="19.999998"
       id="rect954" />
    <rect
       id="rect964"
       height="19.999998"
       width="35"
       y="19.999998"
       x="22.499998" />
    <rect
       x="22.499998"
       y="19.999998"
       width="35"
       height="19.999998"
       id="rect1012" />
    <rect
       id="rect1020"
       height="19.999998"
       width="35"
       y="19.999998"
       x="22.499998" />
    <rect
       x="22.499998"
       y="19.999998"
       width="35"
       height="19.999998"
       id="rect1028" />
    <rect
       id="rect1036"
       height="19.999998"
       width="35"
       y="19.999998"
       x="22.499998" />
    <rect
       x="22.499998"
       y="19.999998"
       width="35"
       height="19.999998"
       id="rect1046" />
    <rect
       x="22.499998"
       y="19.999998"
       width="35"
       height="19.999998"
       id="rect964-1" />
    <rect
       x="22.499998"
       y="19.999998"
       width="35"
       height="19.999998"
       id="rect1058" />
    <rect
       id="rect1012-7"
       height="19.999998"
       width="35"
       y="19.999998"
       x="22.499998" />
    <rect
       id="rect1061"
       height="19.999998"
       width="35"
       y="19.999998"
       x="22.499998" />
    <rect
       id="rect1028-6"
       height="19.999998"
       width="35"
       y="19.999998"
       x="22.499998" />
    <rect
       id="rect1110"
       height="19.999998"
       width="35"
       y="19.999998"
       x="22.499998" />
    <rect
       x="22.499998"
       y="19.999998"
       width="35"
       height="19.999998"
       id="rect1036-8" />
    <rect
       x="22.499998"
       y="19.999998"
       width="35"
       height="19.999998"
       id="rect1113" />
    <rect
       x="22.499998"
       y="19.999998"
       width="35"
       height="19.999998"
       id="rect853-6-5-9" />
    <rect
       x="22.499998"
       y="19.999998"
       width="35"
       height="19.999998"
       id="rect1116" />
    <rect
       x="22.499998"
       y="19.999998"
       width="35"
       height="19.999998"
       id="rect1020-1" />
    <rect
       x="22.499998"
       y="19.999998"
       width="35"
       height="19.999998"
       id="rect1184" />
    <rect
       id="rect1046-2"
       height="19.999998"
       width="35"
       y="19.999998"
       x="22.499998" />
    <rect
       id="rect1187"
       height="19.999998"
       width="35"
       y="19.999998"
       x="22.499998" />
    <rect
       x="22.499998"
       y="19.999998"
       width="35"
       height="19.999998"
       id="rect1028-6-9" />
    <rect
       x="22.499998"
       y="19.999998"
       width="35"
       height="19.999998"
       id="rect1104" />
    <rect
       id="rect964-1-7"
       height="19.999998"
       width="35"
       y="19.999998"
       x="22.499998" />
    <rect
       id="rect1107"
       height="19.999998"
       width="35"
       y="19.999998"
       x="22.499998" />
    <rect
       x="22.499998"
       y="19.999998"
       width="35"
       height="19.999998"
       id="rect1012-7-7" />
    <rect
       x="22.499998"
       y="19.999998"
       width="35"
       height="19.999998"
       id="rect1110-9" />
    <rect
       id="rect1036-8-6"
       height="19.999998"
       width="35"
       y="19.999998"
       x="22.499998" />
    <rect
       id="rect1113-6"
       height="19.999998"
       width="35"
       y="19.999998"
       x="22.499998" />
    <rect
       id="rect853-6-5-9-1"
       height="19.999998"
       width="35"
       y="19.999998"
       x="22.499998" />
    <rect
       id="rect1116-2"
       height="19.999998"
       width="35"
       y="19.999998"
       x="22.499998" />
    <rect
       id="rect1020-1-2"
       height="19.999998"
       width="35"
       y="19.999998"
       x="22.499998" />
    <rect
       id="rect1119"
       height="19.999998"
       width="35"
       y="19.999998"
       x="22.499998" />
    <rect
       x="22.499998"
       y="19.999998"
       width="35"
       height="19.999998"
       id="rect1046-2-1" />
    <rect
       x="22.499998"
       y="19.999998"
       width="35"
       height="19.999998"
       id="rect1122" />
    <rect
       id="rect1012-7-7-7"
       height="19.999998"
       width="35"
       y="19.999998"
       x="22.499998" />
    <rect
       id="rect1243"
       height="19.999998"
       width="35"
       y="19.999998"
       x="22.499998" />
    <rect
       x="22.499998"
       y="19.999998"
       width="35"
       height="19.999998"
       id="rect964-1-7-1" />
    <rect
       x="22.499998"
       y="19.999998"
       width="35"
       height="19.999998"
       id="rect1246" />
    <rect
       x="22.499998"
       y="19.999998"
       width="35"
       height="19.999998"
       id="rect1036-8-6-3" />
    <rect
       x="22.499998"
       y="19.999998"
       width="35"
       height="19.999998"
       id="rect1249" />
    <rect
       id="rect1028-6-9-2"
       height="19.999998"
       width="35"
       y="19.999998"
       x="22.499998" />
    <rect
       id="rect1252"
       height="19.999998"
       width="35"
       y="19.999998"
       x="22.499998" />
    <rect
       x="22.499998"
       y="19.999998"
       width="35"
       height="19.999998"
       id="rect853-6-5-9-1-5" />
    <rect
       x="22.499998"
       y="19.999998"
       width="35"
       height="19.999998"
       id="rect1255" />
    <rect
       id="rect1046-2-1-2"
       height="19.999998"
       width="35"
       y="19.999998"
       x="22.499998" />
    <rect
       id="rect1258"
       height="19.999998"
       width="35"
       y="19.999998"
       x="22.499998" />
    <rect
       x="22.499998"
       y="19.999998"
       width="35"
       height="19.999998"
       id="rect1020-1-2-7" />
    <rect
       x="22.499998"
       y="19.999998"
       width="35"
       height="19.999998"
       id="rect1261" />
  </defs>
  <sodipodi:namedview
     fit-margin-bottom="5"
     fit-margin-right="5"
     fit-margin-left="5"
     fit-margin-top="5"
     inkscape:window-maximized="1"
     inkscape:window-y="0"
     inkscape:window-x="0"
     inkscape:window-height="1142"
     inkscape:window-width="1920"
     showgrid="true"
     inkscape:document-rotation="0"
     inkscape:current-layer="layer14"
     inkscape:document-units="mm"
     inkscape:cy="126.75066"
     inkscape:cx="145.49779"
     inkscape:zoom="2.8284271"
     inkscape:pageshadow="2"
     inkscape:pageopacity="0.0"
     borderopacity="1.0"
     bordercolor="#666666"
     pagecolor="#ffffff"
     id="base">
    <inkscape:grid
       originy="-2.7066665"
       originx="0.21167031"
       spacingy="1.25"
       spacingx="1.25"
       units="cm"
       id="grid833"
       type="xygrid" />
  </sodipodi:namedview>
  <metadata
     id="metadata5">
    <rdf:RDF>
      <cc:Work
         rdf:about="">
        <dc:format>image/svg+xml</dc:format>
        <dc:type
           rdf:resource="http://purl.org/dc/dcmitype/StillImage" />
        <dc:title />
      </cc:Work>
    </rdf:RDF>
  </metadata>
  <g
     transform="translate(0.21167031,-2.7066665)"
     sodipodi:insensitive="true"
     inkscape:label="Light Gray Lines"
     id="layer6"
     inkscape:groupmode="layer">
    <g
       sodipodi:insensitive="true"
       inkscape:groupmode="layer"
       id="layer9"
       inkscape:label="Lines 2">
      <path
         sodipodi:nodetypes="cc"
         style="fill:none;stroke:#c2c2c2;stroke-width:0.211667;stroke-linecap:butt;stroke-linejoin:miter;stroke-miterlimit:4;stroke-dasharray:none;stroke-opacity:1"
         d="M 25,53.75 45,35"
         id="path1327" />
      <path
         sodipodi:nodetypes="cc"
         style="fill:none;stroke:#c2c2c2;stroke-width:0.211667;stroke-linecap:butt;stroke-linejoin:miter;stroke-miterlimit:4;stroke-dasharray:none;stroke-opacity:1"
         d="M 40,16.25 H 25"
         id="path1357" />
      <path
         id="path1359"
         d="M 40,16.25 25,28.750006"
         style="fill:none;stroke:#c2c2c2;stroke-width:0.211667;stroke-linecap:butt;stroke-linejoin:miter;stroke-miterlimit:4;stroke-dasharray:none;stroke-opacity:1"
         sodipodi:nodetypes="cc" />
      <path
         sodipodi:nodetypes="cc"
         style="fill:none;stroke:#c2c2c2;stroke-width:0.211667;stroke-linecap:butt;stroke-linejoin:miter;stroke-miterlimit:4;stroke-dasharray:none;stroke-opacity:1"
         d="M 40,16.25 25,41.250006"
         id="path1361" />
      <path
         id="path1363"
         d="M 40,16.25 25,53.75"
         style="fill:none;stroke:#c2c2c2;stroke-width:0.211667;stroke-linecap:butt;stroke-linejoin:miter;stroke-miterlimit:4;stroke-dasharray:none;stroke-opacity:1"
         sodipodi:nodetypes="cc" />
    </g>
    <g
       sodipodi:insensitive="true"
       inkscape:groupmode="layer"
       id="layer10"
       inkscape:label="Shadows"
       style="display:inline">
      <path
         id="path1321-5"
         d="M 28.673518,29.910361 39.808966,33.35817"
         style="fill:none;stroke:#ffffff;stroke-width:0.846667;stroke-linecap:butt;stroke-linejoin:miter;stroke-miterlimit:4;stroke-dasharray:none;stroke-opacity:1"
         sodipodi:nodetypes="cc" />
      <path
         sodipodi:nodetypes="cc"
         style="fill:none;stroke:#ffffff;stroke-width:0.846667;stroke-linecap:butt;stroke-linejoin:miter;stroke-miterlimit:4;stroke-dasharray:none;stroke-opacity:1"
         d="M 28.372429,19.409678 40.551334,30.834737"
         id="path1323-0" />
      <path
         id="path1325-9"
         d="m 27.374163,40.505865 8.15146,-2.551108"
         style="fill:none;stroke:#ffffff;stroke-width:0.846667;stroke-linecap:butt;stroke-linejoin:miter;stroke-miterlimit:4;stroke-dasharray:none;stroke-opacity:1"
         sodipodi:nodetypes="cc" />
    </g>
    <g
       sodipodi:insensitive="true"
       inkscape:groupmode="layer"
       id="layer8"
       inkscape:label="Lines 1">
      <path
         sodipodi:nodetypes="cc"
         style="fill:none;stroke:#c2c2c2;stroke-width:0.211667;stroke-linecap:butt;stroke-linejoin:miter;stroke-miterlimit:4;stroke-dasharray:none;stroke-opacity:1"
         d="M 25,28.750005 45,35"
         id="path1321" />
      <path
         id="path1323"
         d="M 25,16.25 45,35"
         style="fill:none;stroke:#c2c2c2;stroke-width:0.211667;stroke-linecap:butt;stroke-linejoin:miter;stroke-miterlimit:4;stroke-dasharray:none;stroke-opacity:1"
         sodipodi:nodetypes="cc" />
      <path
         sodipodi:nodetypes="cc"
         style="fill:none;stroke:#c2c2c2;stroke-width:0.211667;stroke-linecap:butt;stroke-linejoin:miter;stroke-miterlimit:4;stroke-dasharray:none;stroke-opacity:1"
         d="M 25,41.250005 45,35"
         id="path1325" />
      <path
         sodipodi:nodetypes="cc"
         style="fill:none;stroke:#c2c2c2;stroke-width:0.211667;stroke-linecap:butt;stroke-linejoin:miter;stroke-miterlimit:4;stroke-dasharray:none;stroke-opacity:1"
         d="M 53.750001,20 V 31.25"
         id="path1353" />
      <path
         id="path1355"
         d="M 53.750001,38.75 V 50.000001"
         style="fill:none;stroke:#c2c2c2;stroke-width:0.211667;stroke-linecap:butt;stroke-linejoin:miter;stroke-miterlimit:4;stroke-dasharray:none;stroke-opacity:1"
         sodipodi:nodetypes="cc" />
      <path
         id="path1365"
         d="m 67.500002,16.25 c 13.80743,13.795865 11.003195,25.964468 0,37.499999"
         style="fill:none;stroke:#c2c2c2;stroke-width:0.211667;stroke-linecap:butt;stroke-linejoin:miter;stroke-miterlimit:4;stroke-dasharray:none;stroke-opacity:1"
         sodipodi:nodetypes="cc" />
      <path
         id="path1353-1"
         d="m 62.5,33.75 c 6.25,-6.25 6.25,8.75 0,2.5"
         style="fill:none;stroke:#c2c2c2;stroke-width:0.211667;stroke-linecap:butt;stroke-linejoin:miter;stroke-miterlimit:4;stroke-dasharray:none;stroke-opacity:1"
         sodipodi:nodetypes="cc" />
    </g>
  </g>
  <g
     transform="translate(0.21167031,-2.7066665)"
     sodipodi:insensitive="true"
     inkscape:groupmode="layer"
     id="layer7"
     inkscape:label="Gray Shadows">
    <path
       sodipodi:nodetypes="cc"
       style="fill:none;stroke:#ffffff;stroke-width:0.846667;stroke-linecap:butt;stroke-linejoin:miter;stroke-miterlimit:4;stroke-dasharray:none;stroke-opacity:1"
       d="m 27.277317,43.159826 6.483861,5.40643"
       id="path940-7" />
  </g>
  <g
     transform="translate(0.21167031,-2.7066665)"
     sodipodi:insensitive="true"
     inkscape:label="Gray Lines"
     id="layer5"
     inkscape:groupmode="layer"
     style="display:inline">
    <path
       style="fill:none;stroke:#959595;stroke-width:0.211667;stroke-linecap:butt;stroke-linejoin:miter;stroke-miterlimit:4;stroke-dasharray:none;stroke-opacity:1"
       d="m 15,45.000001 v 5.000002"
       id="path1270-9" />
    <path
       id="path1270-9-6"
       d="m 15,20.000003 v 5.000002"
       style="fill:none;stroke:#959595;stroke-width:0.211667;stroke-linecap:butt;stroke-linejoin:miter;stroke-miterlimit:4;stroke-dasharray:none;stroke-opacity:1" />
    <path
       sodipodi:nodetypes="cc"
       style="fill:none;stroke:#959595;stroke-width:0.211667;stroke-linecap:butt;stroke-linejoin:miter;stroke-miterlimit:4;stroke-dasharray:none;stroke-opacity:1"
       d="M 25,53.75 H 40"
       id="path1303" />
    <path
       id="path940"
       d="M 25,41.250003 40,53.75"
       style="fill:none;stroke:#959595;stroke-width:0.211667;stroke-linecap:butt;stroke-linejoin:miter;stroke-miterlimit:4;stroke-dasharray:none;stroke-opacity:1"
       sodipodi:nodetypes="cc" />
    <path
       sodipodi:nodetypes="cc"
       style="display:inline;fill:none;stroke:#959595;stroke-width:0.211667;stroke-linecap:butt;stroke-linejoin:miter;stroke-miterlimit:4;stroke-dasharray:none;stroke-opacity:1"
       d="M 16.25,12.5 C 22.5,6.25 7.5,6.25 13.75,12.5"
       id="path1270-9-6-5" />
  </g>
  <g
     transform="translate(0.21167031,-2.7066665)"
     sodipodi:insensitive="true"
     inkscape:label="Orange Lines"
     id="layer4"
     inkscape:groupmode="layer">
    <path
       id="path1270"
       d="m 15,32.500002 v 5.000001"
       style="fill:none;stroke:#ff8000;stroke-width:0.211667;stroke-linecap:butt;stroke-linejoin:miter;stroke-miterlimit:4;stroke-dasharray:none;stroke-opacity:1" />
  </g>
  <g
     transform="translate(0.21167031,-2.7066665)"
     sodipodi:insensitive="true"
     id="layer1"
     inkscape:groupmode="layer"
     inkscape:label="Light Gray">
    <rect
       ry="1.1970611"
       y="31.250002"
       x="45"
       height="7.4999981"
       width="17.499998"
       id="rect1018"
       style="fill:none;stroke:#c2c2c2;stroke-width:0.423333;stroke-linecap:round;stroke-linejoin:round;stroke-miterlimit:4;stroke-dasharray:none;stroke-opacity:1" />
    <rect
       style="fill:none;stroke:#c2c2c2;stroke-width:0.423333;stroke-linecap:round;stroke-linejoin:round;stroke-miterlimit:4;stroke-dasharray:none;stroke-opacity:1"
       id="rect1044"
       width="27.499996"
       height="7.4999976"
       x="39.993134"
       y="12.404114"
       ry="1.1970611" />
  </g>
  <g
     transform="translate(0.21167031,-2.7066665)"
     sodipodi:insensitive="true"
     style="display:inline"
     inkscape:label="Gray"
     id="layer3"
     inkscape:groupmode="layer">
    <rect
       ry="1.1970611"
       y="49.904118"
       x="39.99313"
       height="7.5"
       width="27.500002"
       id="rect835-0"
       style="fill:none;stroke:#959595;stroke-width:0.423333;stroke-linecap:round;stroke-linejoin:round;stroke-miterlimit:4;stroke-dasharray:none;stroke-opacity:1" />
    <rect
       style="fill:none;stroke:#959595;stroke-width:0.423333;stroke-linecap:round;stroke-linejoin:round;stroke-miterlimit:4;stroke-dasharray:none;stroke-opacity:1"
       id="rect1026"
       width="20"
       height="7.5"
       x="5.0000005"
       y="12.500004"
       ry="1.1970611" />
    <rect
       ry="1.1970611"
       y="50"
       x="4.9999962"
       height="7.5"
       width="20.000002"
       id="rect1034"
       style="fill:none;stroke:#959595;stroke-width:0.423333;stroke-linecap:round;stroke-linejoin:round;stroke-miterlimit:4;stroke-dasharray:none;stroke-opacity:1" />
  </g>
  <g
     transform="translate(0.21167031,-2.7066665)"
     sodipodi:insensitive="true"
     style="display:inline"
     inkscape:label="Orange"
     id="layer2"
     inkscape:groupmode="layer">
    <rect
       ry="1.1970611"
       y="25.000002"
       x="5.0000019"
       height="7.4999981"
       width="19.999998"
       id="rect962"
       style="fill:none;stroke:#ff8000;stroke-width:0.42333299;stroke-linecap:round;stroke-linejoin:round;stroke-miterlimit:4;stroke-dasharray:none;stroke-opacity:1" />
    <rect
       style="fill:none;stroke:#ff8000;stroke-width:0.42333299;stroke-linecap:round;stroke-linejoin:round;stroke-miterlimit:4;stroke-dasharray:none;stroke-opacity:1"
       id="rect1010"
       width="19.999998"
       height="7.4999981"
       x="5"
       y="37.5"
       ry="1.1970611" />
  </g>
  <g
     transform="translate(0.21167031,-2.7066665)"
     sodipodi:insensitive="true"
     style="display:none"
     inkscape:label="Text (Text)"
     id="layer12"
     inkscape:groupmode="layer">
    <text
       transform="translate(24.507077,13.064711)"
       style="font-style:normal;font-variant:normal;font-weight:normal;font-stretch:normal;font-size:3.52778px;line-height:1.25;font-family:Consolas;-inkscape-font-specification:Consolas;white-space:pre;shape-inside:url(#rect1020-1-2);fill:#000000;fill-opacity:1;stroke:none;"
       id="text1016"
       xml:space="preserve"><tspan
         x="22.5"
         y="23.060969"
         id="tspan103"><tspan
           id="tspan101">Comment</tspan></tspan></text>
    <text
       xml:space="preserve"
       id="text1042"
       style="font-style:normal;font-variant:normal;font-weight:normal;font-stretch:normal;font-size:3.52778px;line-height:1.25;font-family:Consolas;-inkscape-font-specification:Consolas;white-space:pre;shape-inside:url(#rect1046-2-1);fill:#000000;fill-opacity:1;stroke:none;"
       transform="translate(18.665062,-5.5991635)"><tspan
         x="22.5"
         y="23.060969"
         id="tspan108"><tspan
           id="tspan106">Documentation</tspan></tspan></text>
    <text
       transform="translate(20.527132,31.900842)"
       style="font-style:normal;font-variant:normal;font-weight:normal;font-stretch:normal;font-size:3.52778px;line-height:1.25;font-family:Consolas;-inkscape-font-specification:Consolas;white-space:pre;shape-inside:url(#rect853-6-5-9-1);display:inline;fill:#000000;fill-opacity:1;stroke:none;"
       id="text851-1-2"
       xml:space="preserve"><tspan
         x="22.5"
         y="23.060969"
         id="tspan113"><tspan
           id="tspan111">Environment</tspan></tspan></text>
    <text
       xml:space="preserve"
       id="text1024"
       style="font-style:normal;font-variant:normal;font-weight:normal;font-stretch:normal;font-size:3.52778px;line-height:1.25;font-family:Consolas;-inkscape-font-specification:Consolas;white-space:pre;shape-inside:url(#rect1028-6-9);display:inline;fill:#000000;fill-opacity:1;stroke:none;"
       transform="translate(-12.287822,-5.6094895)"><tspan
         x="22.5"
         y="23.060969"
         id="tspan118"><tspan
           id="tspan116">Class</tspan></tspan></text>
    <text
       transform="translate(-13.227475,31.89051)"
       style="font-style:normal;font-variant:normal;font-weight:normal;font-stretch:normal;font-size:3.52778px;line-height:1.25;font-family:Consolas;-inkscape-font-specification:Consolas;white-space:pre;shape-inside:url(#rect1036-8-6);display:inline;fill:#000000;fill-opacity:1;stroke:none;"
       id="text1032"
       xml:space="preserve"><tspan
         x="22.5"
         y="23.060969"
         id="tspan123"><tspan
           id="tspan121">Method</tspan></tspan></text>
    <text
       transform="translate(-14.357466,6.8905064)"
       style="font-style:normal;font-variant:normal;font-weight:normal;font-stretch:normal;font-size:3.52778px;line-height:1.25;font-family:Consolas;-inkscape-font-specification:Consolas;white-space:pre;shape-inside:url(#rect964-1-7);display:inline;fill:#000000;fill-opacity:1;stroke:none;stroke-width:1;stroke-miterlimit:4;stroke-dasharray:none;"
       id="text960"
       xml:space="preserve"><tspan
         x="22.5"
         y="23.060969"
         id="tspan128"><tspan
           style="stroke-width:1;stroke-miterlimit:4;stroke-dasharray:none"
           id="tspan126">Problem</tspan></tspan></text>
    <text
       xml:space="preserve"
       id="text1008"
       style="font-style:normal;font-variant:normal;font-weight:normal;font-stretch:normal;font-size:3.52778px;line-height:1.25;font-family:Consolas;-inkscape-font-specification:Consolas;white-space:pre;shape-inside:url(#rect1012-7-7);display:inline;fill:#000000;fill-opacity:1;stroke:none;"
       transform="translate(-15.229076,19.400836)"><tspan
         x="22.5"
         y="23.060969"
         id="tspan133"><tspan
           id="tspan131">Solution</tspan></tspan></text>
    <text
       id="text1096"
       y="49.492657"
       x="34.072216"
       style="font-style:normal;font-variant:normal;font-weight:normal;font-stretch:normal;font-size:2.82223px;line-height:1.25;font-family:Consolas;-inkscape-font-specification:Consolas;fill:#000000;fill-opacity:1;stroke:none;stroke-width:0.264583"
       xml:space="preserve"><tspan
         style="font-style:normal;font-variant:normal;font-weight:normal;font-stretch:normal;font-size:2.82223px;font-family:Consolas;-inkscape-font-specification:Consolas;stroke-width:0.264583"
         y="49.492657"
         x="34.072216"
         id="tspan1094"
         sodipodi:role="line">1</tspan></text>
    <text
       xml:space="preserve"
       style="font-style:normal;font-variant:normal;font-weight:normal;font-stretch:normal;font-size:2.82223px;line-height:1.25;font-family:Consolas;-inkscape-font-specification:Consolas;fill:#000000;fill-opacity:1;stroke:none;stroke-width:0.264583"
       x="27.803947"
       y="43.484249"
       id="text1100"><tspan
         sodipodi:role="line"
         id="tspan1098"
         x="27.803947"
         y="43.484249"
         style="font-style:normal;font-variant:normal;font-weight:normal;font-stretch:normal;font-size:2.82223px;font-family:Consolas;-inkscape-font-specification:Consolas;stroke-width:0.264583">n</tspan></text>
  </g>
  <g
     transform="translate(0.21167031,-2.7066665)"
     sodipodi:insensitive="true"
     style="display:inline"
     inkscape:label="Text (Paths)"
     id="layer13"
     inkscape:groupmode="layer">
    <g
       style="font-style:normal;font-variant:normal;font-weight:normal;font-stretch:normal;font-size:3.52778px;line-height:1.25;font-family:Consolas;-inkscape-font-specification:Consolas;white-space:pre;shape-inside:url(#rect1020-1-2-7);fill:#000000;fill-opacity:1;stroke:none"
       id="text1016-7"
       transform="translate(24.507077,13.064712)"
       aria-label="Comment">
      <path
         id="path1479"
         d="m 24.213936,22.976564 q -0.27044,0.111966 -0.566718,0.111966 -0.477146,0 -0.733806,-0.28422 -0.254938,-0.285944 -0.254938,-0.844049 0,-0.270441 0.07063,-0.489204 0.07062,-0.218764 0.201538,-0.370348 0.130914,-0.153307 0.316949,-0.235989 0.186035,-0.08268 0.416857,-0.08268 0.156752,0 0.291111,0.02756 0.134359,0.02584 0.258382,0.08096 v 0.301446 q -0.122301,-0.06718 -0.253215,-0.101631 -0.130913,-0.03617 -0.285943,-0.03617 -0.158474,0 -0.287665,0.06029 -0.127469,0.05857 -0.217041,0.172255 -0.08957,0.111966 -0.137804,0.275608 -0.04823,0.161919 -0.04823,0.370348 0,0.437527 0.177423,0.659736 0.177422,0.222209 0.52021,0.222209 0.144694,0 0.27733,-0.03273 0.132636,-0.03445 0.254937,-0.09474 z" />
      <path
         id="path1481"
         d="m 26.224151,22.182469 q 0,0.201539 -0.05684,0.370348 -0.05685,0.167088 -0.163643,0.287666 -0.106798,0.118856 -0.260104,0.186035 -0.153307,0.06546 -0.347955,0.06546 -0.186036,0 -0.334175,-0.05684 -0.146416,-0.05857 -0.249769,-0.170532 -0.101631,-0.111966 -0.156752,-0.277331 -0.0534,-0.165364 -0.0534,-0.380683 0,-0.201538 0.05684,-0.366903 0.05684,-0.167087 0.163642,-0.285943 0.106798,-0.120578 0.260105,-0.186035 0.153307,-0.06718 0.347955,-0.06718 0.186035,0 0.332452,0.05857 0.148139,0.05684 0.249769,0.16881 0.103353,0.110243 0.156752,0.275608 0.05512,0.165364 0.05512,0.37896 z m -0.306614,0.01378 q 0,-0.160197 -0.03617,-0.279053 -0.03445,-0.120579 -0.09991,-0.199816 -0.06546,-0.08096 -0.160197,-0.120578 -0.09302,-0.04134 -0.208429,-0.04134 -0.134359,0 -0.230821,0.0534 -0.09474,0.05168 -0.156752,0.139526 -0.06029,0.08785 -0.08957,0.204983 -0.02756,0.115411 -0.02756,0.24288 0,0.160197 0.03445,0.280775 0.03617,0.120579 0.101631,0.201538 0.06546,0.07924 0.158474,0.120579 0.09302,0.03962 0.210151,0.03962 0.134359,0 0.229099,-0.05168 0.09646,-0.0534 0.156752,-0.141249 0.06201,-0.08785 0.08957,-0.203261 0.02928,-0.117133 0.02928,-0.246324 z" />
      <path
         id="path1483"
         d="m 27.895023,23.060969 v -1.241957 q 0,-0.08096 -0.0069,-0.132637 -0.0052,-0.05168 -0.01895,-0.08096 -0.01206,-0.03101 -0.03273,-0.04306 -0.01895,-0.01206 -0.04823,-0.01206 -0.03445,0 -0.06373,0.02067 -0.02928,0.02067 -0.06374,0.06718 -0.03273,0.04651 -0.07407,0.124023 -0.03962,0.07579 -0.09474,0.187758 v 1.111044 h -0.273872 v -1.20923 q 0,-0.09474 -0.0069,-0.153307 -0.0052,-0.05857 -0.01895,-0.0913 -0.01206,-0.03273 -0.03273,-0.04479 -0.02067,-0.01206 -0.04995,-0.01206 -0.03101,0 -0.05857,0.01722 -0.02756,0.01723 -0.06201,0.06201 -0.03273,0.04479 -0.07407,0.122301 -0.04134,0.07751 -0.09819,0.198093 v 1.111044 H 26.5411 V 21.33153 h 0.229099 l 0.01378,0.329007 q 0.04479,-0.09819 0.08613,-0.167087 0.04306,-0.0689 0.08785,-0.110243 0.04479,-0.04306 0.09474,-0.06201 0.05168,-0.02067 0.113688,-0.02067 0.139526,0 0.211873,0.0913 0.07235,0.0913 0.07235,0.282498 0.04134,-0.08957 0.08096,-0.158474 0.03962,-0.07062 0.08441,-0.117133 0.04651,-0.04823 0.101631,-0.07235 0.05512,-0.02584 0.127468,-0.02584 0.325562,0 0.325562,0.501262 v 1.259183 z" />
      <path
         id="path1485"
         d="m 29.838058,23.060969 v -1.241957 q 0,-0.08096 -0.0069,-0.132637 -0.0052,-0.05168 -0.01895,-0.08096 -0.01206,-0.03101 -0.03273,-0.04306 -0.01895,-0.01206 -0.04823,-0.01206 -0.03445,0 -0.06373,0.02067 -0.02928,0.02067 -0.06373,0.06718 -0.03273,0.04651 -0.07407,0.124023 -0.03962,0.07579 -0.09474,0.187758 v 1.111044 h -0.273882 v -1.20923 q 0,-0.09474 -0.0069,-0.153307 -0.0052,-0.05857 -0.01895,-0.0913 -0.01206,-0.03273 -0.03273,-0.04479 -0.02067,-0.01206 -0.04995,-0.01206 -0.03101,0 -0.05857,0.01722 -0.02756,0.01723 -0.06201,0.06201 -0.03273,0.04479 -0.07407,0.122301 -0.04134,0.07751 -0.09819,0.198093 v 1.111044 H 28.484135 V 21.33153 h 0.229099 l 0.01378,0.329007 q 0.04479,-0.09819 0.08613,-0.167087 0.04306,-0.0689 0.08785,-0.110243 0.04479,-0.04306 0.09474,-0.06201 0.05168,-0.02067 0.113688,-0.02067 0.139526,0 0.211874,0.0913 0.07235,0.0913 0.07235,0.282498 0.04134,-0.08957 0.08096,-0.158474 0.03962,-0.07062 0.08441,-0.117133 0.04651,-0.04823 0.101631,-0.07235 0.05512,-0.02584 0.127468,-0.02584 0.325562,0 0.325562,0.501262 v 1.259183 z" />
      <path
         id="path1487"
         d="m 32.00847,22.104955 q 0,0.06373 -0.0017,0.106798 -0.0017,0.04306 -0.0052,0.08096 h -1.214397 q 0,0.265272 0.148139,0.408244 0.148139,0.141249 0.427192,0.141249 0.07579,0 0.151584,-0.0052 0.07579,-0.0069 0.146417,-0.01723 0.07062,-0.01033 0.134359,-0.02239 0.06546,-0.01378 0.120578,-0.02928 v 0.246324 q -0.122301,0.03445 -0.27733,0.05512 -0.153307,0.02239 -0.318672,0.02239 -0.222209,0 -0.382406,-0.06029 -0.160197,-0.06029 -0.26355,-0.173977 -0.10163,-0.115411 -0.151584,-0.280776 -0.04823,-0.167087 -0.04823,-0.377238 0,-0.18259 0.05168,-0.34451 0.0534,-0.163642 0.153307,-0.285943 0.10163,-0.124024 0.248047,-0.196371 0.146417,-0.07235 0.332452,-0.07235 0.180868,0 0.320394,0.05684 0.139527,0.05684 0.234267,0.16192 0.09646,0.103353 0.144694,0.253215 0.04995,0.148139 0.04995,0.332452 z m -0.311782,-0.04306 q 0.0052,-0.115411 -0.02239,-0.210151 -0.02756,-0.09646 -0.08613,-0.165365 -0.05684,-0.0689 -0.142972,-0.106798 -0.08613,-0.03962 -0.199815,-0.03962 -0.09819,0 -0.179145,0.0379 -0.08096,0.0379 -0.139527,0.106798 -0.05857,0.0689 -0.09474,0.165364 -0.03617,0.09646 -0.04479,0.211874 z" />
      <path
         id="path1489"
         d="m 32.490783,21.33153 h 0.266996 l 0.01206,0.279053 q 0.07579,-0.08957 0.146417,-0.148139 0.07062,-0.06029 0.137804,-0.09646 0.0689,-0.03617 0.139526,-0.04995 0.07063,-0.0155 0.146417,-0.0155 0.266995,0 0.403076,0.158475 0.137804,0.156752 0.137804,0.473701 v 1.128269 H 33.58116 v -1.104154 q 0,-0.20326 -0.07579,-0.299723 -0.07579,-0.09818 -0.225654,-0.09818 -0.05512,0 -0.108521,0.01722 -0.05168,0.0155 -0.10852,0.05684 -0.05684,0.03962 -0.124024,0.108521 -0.06546,0.0689 -0.148139,0.172255 v 1.147217 h -0.299724 z" />
      <path
         id="path1491"
         d="m 35.827361,23.036854 q -0.101631,0.02584 -0.210151,0.03617 -0.108521,0.01206 -0.220487,0.01206 -0.325561,0 -0.485758,-0.146417 -0.160197,-0.148139 -0.160197,-0.45303 V 21.583022 H 34.266731 V 21.33153 h 0.484037 v -0.475423 l 0.299723,-0.07752 v 0.552938 h 0.77687 v 0.251492 h -0.77687 v 0.8785 q 0,0.186036 0.09819,0.279053 0.09991,0.09129 0.292834,0.09129 0.08268,0 0.180867,-0.01206 0.09819,-0.01378 0.204984,-0.04134 z" />
    </g>
    <g
       style="font-style:normal;font-variant:normal;font-weight:normal;font-stretch:normal;font-size:3.52778px;line-height:1.25;font-family:Consolas;-inkscape-font-specification:Consolas;white-space:pre;shape-inside:url(#rect1046-2-1-2);fill:#000000;fill-opacity:1;stroke:none"
       id="text1042-6"
       transform="translate(18.665062,-5.5991625)"
       aria-label="Documentation">
      <path
         id="path1452"
         d="m 24.313844,21.910307 q 0,0.161919 -0.02584,0.310058 -0.02412,0.14814 -0.07924,0.275608 -0.05512,0.127469 -0.142971,0.232544 -0.08785,0.103353 -0.215319,0.177423 -0.127468,0.07407 -0.296278,0.115411 -0.16881,0.03962 -0.384128,0.03962 H 22.687754 V 20.8096 h 0.580499 q 0.5271,0 0.785482,0.272163 0.260105,0.27044 0.260105,0.828546 z m -0.322117,0.02239 q 0,-0.239434 -0.04479,-0.404799 -0.04479,-0.165365 -0.136081,-0.266995 -0.0913,-0.101631 -0.229099,-0.146417 -0.137804,-0.04651 -0.32384,-0.04651 h -0.263549 v 1.727717 h 0.229099 q 0.768256,0 0.768256,-0.862997 z" />
      <path
         id="path1454"
         d="m 26.224151,22.182469 q 0,0.201539 -0.05684,0.370348 -0.05685,0.167088 -0.163643,0.287666 -0.106798,0.118856 -0.260104,0.186035 -0.153307,0.06546 -0.347955,0.06546 -0.186036,0 -0.334175,-0.05684 -0.146416,-0.05857 -0.249769,-0.170532 -0.101631,-0.111966 -0.156752,-0.277331 -0.0534,-0.165364 -0.0534,-0.380683 0,-0.201538 0.05684,-0.366903 0.05684,-0.167087 0.163642,-0.285943 0.106798,-0.120578 0.260105,-0.186035 0.153307,-0.06718 0.347955,-0.06718 0.186035,0 0.332452,0.05857 0.148139,0.05684 0.249769,0.16881 0.103353,0.110243 0.156752,0.275608 0.05512,0.165364 0.05512,0.37896 z m -0.306614,0.01378 q 0,-0.160197 -0.03617,-0.279053 -0.03445,-0.120579 -0.09991,-0.199816 -0.06546,-0.08096 -0.160197,-0.120578 -0.09302,-0.04134 -0.208429,-0.04134 -0.134359,0 -0.230821,0.0534 -0.09474,0.05168 -0.156752,0.139526 -0.06029,0.08785 -0.08957,0.204983 -0.02756,0.115411 -0.02756,0.24288 0,0.160197 0.03445,0.280775 0.03617,0.120579 0.101631,0.201538 0.06546,0.07924 0.158474,0.120579 0.09302,0.03962 0.210151,0.03962 0.134359,0 0.229099,-0.05168 0.09646,-0.0534 0.156752,-0.141249 0.06201,-0.08785 0.08957,-0.203261 0.02928,-0.117133 0.02928,-0.246324 z" />
      <path
         id="path1456"
         d="m 28.005266,22.997235 q -0.117133,0.04479 -0.241157,0.06546 -0.122301,0.02239 -0.253214,0.02239 -0.409967,0 -0.632176,-0.222209 -0.220486,-0.222209 -0.220486,-0.649401 0,-0.204983 0.06373,-0.37207 0.06374,-0.167088 0.179145,-0.285943 0.115411,-0.118856 0.275608,-0.182591 0.160197,-0.06546 0.353123,-0.06546 0.134359,0 0.251492,0.01895 0.117133,0.01895 0.223931,0.06201 v 0.285943 q -0.111966,-0.05857 -0.229099,-0.0844 -0.115411,-0.02756 -0.239434,-0.02756 -0.115411,0 -0.218764,0.04479 -0.10163,0.04306 -0.179145,0.125746 -0.07751,0.08268 -0.122301,0.201538 -0.04479,0.118856 -0.04479,0.268718 0,0.313504 0.151584,0.470256 0.153307,0.155029 0.423747,0.155029 0.122301,0 0.235989,-0.02756 0.115411,-0.02756 0.222209,-0.08268 z" />
      <path
         id="path1458"
         d="m 29.99481,23.060969 h -0.268718 l -0.01034,-0.279053 q -0.07751,0.08957 -0.148139,0.149862 -0.0689,0.05857 -0.137804,0.09474 -0.0689,0.03617 -0.139526,0.04995 -0.0689,0.0155 -0.146417,0.0155 -0.266995,0 -0.403076,-0.156752 -0.136082,-0.156752 -0.136082,-0.473701 V 21.33153 h 0.299724 v 1.105877 q 0,0.397908 0.299723,0.397908 0.05512,0 0.106798,-0.0155 0.0534,-0.01722 0.110243,-0.05684 0.05857,-0.04134 0.124024,-0.110243 0.06718,-0.0689 0.149862,-0.173977 V 21.33153 h 0.299723 z" />
      <path
         id="path1460"
         d="m 31.781093,23.060969 v -1.241957 q 0,-0.08096 -0.0069,-0.132637 -0.0052,-0.05168 -0.01895,-0.08096 -0.01206,-0.03101 -0.03273,-0.04306 -0.01895,-0.01206 -0.04823,-0.01206 -0.03445,0 -0.06373,0.02067 -0.02928,0.02067 -0.06373,0.06718 -0.03273,0.04651 -0.07407,0.124023 -0.03962,0.07579 -0.09474,0.187758 v 1.111044 h -0.273881 v -1.20923 q 0,-0.09474 -0.0069,-0.153307 -0.0052,-0.05857 -0.01895,-0.0913 -0.01206,-0.03273 -0.03273,-0.04479 -0.02067,-0.01206 -0.04995,-0.01206 -0.03101,0 -0.05857,0.01722 -0.02756,0.01723 -0.06201,0.06201 -0.03273,0.04479 -0.07407,0.122301 -0.04134,0.07751 -0.09819,0.198093 v 1.111044 H 30.42717 V 21.33153 h 0.229099 l 0.01378,0.329007 q 0.04479,-0.09819 0.08613,-0.167087 0.04306,-0.0689 0.08785,-0.110243 0.04479,-0.04306 0.09474,-0.06201 0.05168,-0.02067 0.113688,-0.02067 0.139527,0 0.211874,0.0913 0.07235,0.0913 0.07235,0.282498 0.04134,-0.08957 0.08096,-0.158474 0.03962,-0.07062 0.08441,-0.117133 0.04651,-0.04823 0.101631,-0.07235 0.05512,-0.02584 0.127468,-0.02584 0.325562,0 0.325562,0.501262 v 1.259183 z" />
      <path
         id="path1462"
         d="m 33.951505,22.104955 q 0,0.06373 -0.0017,0.106798 -0.0017,0.04306 -0.0052,0.08096 h -1.214397 q 0,0.265272 0.148139,0.408244 0.148139,0.141249 0.427192,0.141249 0.07579,0 0.151584,-0.0052 0.07579,-0.0069 0.146417,-0.01723 0.07062,-0.01033 0.134359,-0.02239 0.06546,-0.01378 0.120578,-0.02928 v 0.246324 q -0.122301,0.03445 -0.27733,0.05512 -0.153307,0.02239 -0.318672,0.02239 -0.222208,0 -0.382406,-0.06029 -0.160197,-0.06029 -0.263549,-0.173977 -0.101631,-0.115411 -0.151585,-0.280776 -0.04823,-0.167087 -0.04823,-0.377238 0,-0.18259 0.05168,-0.34451 0.0534,-0.163642 0.153307,-0.285943 0.101631,-0.124024 0.248047,-0.196371 0.146417,-0.07235 0.332452,-0.07235 0.180868,0 0.320394,0.05684 0.139527,0.05684 0.234267,0.16192 0.09646,0.103353 0.144694,0.253215 0.04995,0.148139 0.04995,0.332452 z m -0.311781,-0.04306 q 0.0052,-0.115411 -0.02239,-0.210151 -0.02756,-0.09646 -0.08613,-0.165365 -0.05684,-0.0689 -0.142972,-0.106798 -0.08613,-0.03962 -0.199815,-0.03962 -0.09819,0 -0.179145,0.0379 -0.08096,0.0379 -0.139527,0.106798 -0.05857,0.0689 -0.09474,0.165364 -0.03617,0.09646 -0.04479,0.211874 z" />
      <path
         id="path1464"
         d="m 34.433819,21.33153 h 0.266995 l 0.01206,0.279053 q 0.07579,-0.08957 0.146417,-0.148139 0.07062,-0.06029 0.137804,-0.09646 0.0689,-0.03617 0.139527,-0.04995 0.07062,-0.0155 0.146416,-0.0155 0.266995,0 0.403077,0.158475 0.137803,0.156752 0.137803,0.473701 v 1.128269 h -0.299723 v -1.104154 q 0,-0.20326 -0.07579,-0.299723 -0.07579,-0.09818 -0.225654,-0.09818 -0.05512,0 -0.108521,0.01722 -0.05168,0.0155 -0.10852,0.05684 -0.05684,0.03962 -0.124024,0.108521 -0.06546,0.0689 -0.148139,0.172255 v 1.147217 h -0.299723 z" />
      <path
         id="path1466"
         d="m 37.770396,23.036854 q -0.101631,0.02584 -0.210151,0.03617 -0.108521,0.01206 -0.220486,0.01206 -0.325562,0 -0.485759,-0.146417 -0.160197,-0.148139 -0.160197,-0.45303 V 21.583022 H 36.209766 V 21.33153 h 0.484037 v -0.475423 l 0.299723,-0.07752 v 0.552938 h 0.77687 v 0.251492 h -0.77687 v 0.8785 q 0,0.186036 0.09818,0.279053 0.09991,0.09129 0.292834,0.09129 0.08268,0 0.180867,-0.01206 0.09819,-0.01378 0.204984,-0.04134 z" />
      <path
         id="path1468"
         d="m 39.430933,23.060969 -0.0069,-0.232544 q -0.141249,0.139527 -0.287666,0.201538 -0.144694,0.06201 -0.304891,0.06201 -0.148139,0 -0.253215,-0.0379 -0.105075,-0.0379 -0.173977,-0.103353 -0.06718,-0.06718 -0.09991,-0.156752 -0.03101,-0.08957 -0.03101,-0.194648 0,-0.260105 0.192925,-0.406521 0.194648,-0.14814 0.573609,-0.14814 h 0.35829 v -0.151584 q 0,-0.153307 -0.09819,-0.244602 -0.09819,-0.09302 -0.299723,-0.09302 -0.146417,0 -0.289389,0.03273 -0.141249,0.03273 -0.292833,0.09302 v -0.27044 q 0.05684,-0.02067 0.125746,-0.03962 0.07063,-0.02067 0.148139,-0.03617 0.07752,-0.0155 0.16192,-0.02411 0.08441,-0.01034 0.170532,-0.01034 0.156752,0 0.282498,0.03445 0.125746,0.03445 0.211874,0.105076 0.08785,0.07062 0.134359,0.177422 0.04651,0.106798 0.04651,0.251493 v 1.192003 z m -0.03273,-0.787205 H 39.01752 q -0.111966,0 -0.192925,0.02239 -0.08096,0.02239 -0.132637,0.06373 -0.05168,0.04134 -0.07751,0.09991 -0.02412,0.05684 -0.02412,0.129191 0,0.04995 0.0155,0.09646 0.0155,0.04479 0.04995,0.08096 0.03445,0.03445 0.08957,0.05512 0.05512,0.02067 0.134359,0.02067 0.103353,0 0.235989,-0.06201 0.134359,-0.06373 0.282498,-0.199816 z" />
      <path
         id="path1470"
         d="m 41.656466,23.036854 q -0.10163,0.02584 -0.210151,0.03617 -0.108521,0.01206 -0.220486,0.01206 -0.325562,0 -0.485759,-0.146417 -0.160197,-0.148139 -0.160197,-0.45303 V 21.583022 H 40.095837 V 21.33153 h 0.484036 v -0.475423 l 0.299723,-0.07752 v 0.552938 h 0.77687 v 0.251492 h -0.77687 v 0.8785 q 0,0.186036 0.09819,0.279053 0.09991,0.09129 0.292833,0.09129 0.08268,0 0.180868,-0.01206 0.09818,-0.01378 0.204983,-0.04134 z" />
      <path
         id="path1472"
         d="M 42.795071,21.579577 H 42.283474 V 21.33153 h 0.814765 v 1.47967 h 0.515042 v 0.249769 H 42.22663 V 22.8112 h 0.568441 z m 0.105075,-0.97324 q 0.04995,0 0.09302,0.01895 0.04306,0.01723 0.07407,0.04995 0.03273,0.03273 0.04995,0.07579 0.01895,0.04134 0.01895,0.09129 0,0.04823 -0.01895,0.09129 -0.01723,0.04306 -0.04995,0.07579 -0.03101,0.03273 -0.07407,0.05168 -0.04306,0.01723 -0.09302,0.01723 -0.04995,0 -0.09302,-0.01723 -0.04306,-0.01895 -0.07579,-0.05168 -0.03101,-0.03273 -0.04995,-0.07579 -0.01723,-0.04306 -0.01723,-0.09129 0,-0.04995 0.01723,-0.09129 0.01895,-0.04306 0.04995,-0.07579 0.03273,-0.03273 0.07579,-0.04995 0.04306,-0.01895 0.09302,-0.01895 z" />
      <path
         id="path1474"
         d="m 45.654502,22.182469 q 0,0.201539 -0.05684,0.370348 -0.05684,0.167088 -0.163642,0.287666 -0.106798,0.118856 -0.260105,0.186035 -0.153307,0.06546 -0.347955,0.06546 -0.186035,0 -0.334175,-0.05684 -0.146416,-0.05857 -0.249769,-0.170532 -0.101631,-0.111966 -0.156752,-0.277331 -0.0534,-0.165364 -0.0534,-0.380683 0,-0.201538 0.05684,-0.366903 0.05684,-0.167087 0.163642,-0.285943 0.106798,-0.120578 0.260105,-0.186035 0.153307,-0.06718 0.347955,-0.06718 0.186035,0 0.332452,0.05857 0.148139,0.05684 0.249769,0.16881 0.103353,0.110243 0.156752,0.275608 0.05512,0.165364 0.05512,0.37896 z m -0.306614,0.01378 q 0,-0.160197 -0.03617,-0.279053 -0.03445,-0.120579 -0.09991,-0.199816 -0.06546,-0.08096 -0.160197,-0.120578 -0.09302,-0.04134 -0.208429,-0.04134 -0.134358,0 -0.230821,0.0534 -0.09474,0.05168 -0.156752,0.139526 -0.06029,0.08785 -0.08957,0.204983 -0.02756,0.115411 -0.02756,0.24288 0,0.160197 0.03445,0.280775 0.03617,0.120579 0.10163,0.201538 0.06546,0.07924 0.158474,0.120579 0.09302,0.03962 0.210151,0.03962 0.134359,0 0.229099,-0.05168 0.09646,-0.0534 0.156752,-0.141249 0.06201,-0.08785 0.08957,-0.203261 0.02928,-0.117133 0.02928,-0.246324 z" />
      <path
         id="path1476"
         d="m 46.092029,21.33153 h 0.266995 l 0.01206,0.279053 q 0.07579,-0.08957 0.146417,-0.148139 0.07062,-0.06029 0.137804,-0.09646 0.0689,-0.03617 0.139526,-0.04995 0.07062,-0.0155 0.146417,-0.0155 0.266995,0 0.403076,0.158475 0.137804,0.156752 0.137804,0.473701 v 1.128269 h -0.299723 v -1.104154 q 0,-0.20326 -0.07579,-0.299723 -0.07579,-0.09818 -0.225654,-0.09818 -0.05512,0 -0.108521,0.01722 -0.05168,0.0155 -0.10852,0.05684 -0.05685,0.03962 -0.124024,0.108521 -0.06546,0.0689 -0.148139,0.172255 v 1.147217 h -0.299724 z" />
    </g>
    <g
       style="font-style:normal;font-variant:normal;font-weight:normal;font-stretch:normal;font-size:3.52778px;line-height:1.25;font-family:Consolas;-inkscape-font-specification:Consolas;white-space:pre;shape-inside:url(#rect853-6-5-9-1-5);display:inline;fill:#000000;fill-opacity:1;stroke:none"
       id="text851-1-2-4"
       transform="translate(20.527132,31.900842)"
       aria-label="Environment">
      <path
         id="path1429"
         d="m 24.126086,23.060969 h -1.279854 v -2.251371 h 1.279854 v 0.258382 h -0.97324 v 0.697633 h 0.935344 v 0.258382 h -0.935344 v 0.775147 h 0.97324 z" />
      <path
         id="path1431"
         d="m 24.718643,21.33153 h 0.266995 l 0.01206,0.279053 q 0.07579,-0.08957 0.146417,-0.148139 0.07062,-0.06029 0.137803,-0.09646 0.0689,-0.03617 0.139527,-0.04995 0.07062,-0.0155 0.146417,-0.0155 0.266995,0 0.403076,0.158475 0.137804,0.156752 0.137804,0.473701 v 1.128269 h -0.299724 v -1.104154 q 0,-0.20326 -0.07579,-0.299723 -0.07579,-0.09818 -0.225654,-0.09818 -0.05512,0 -0.10852,0.01722 -0.05168,0.0155 -0.108521,0.05684 -0.05684,0.03962 -0.124023,0.108521 -0.06546,0.0689 -0.14814,0.172255 v 1.147217 h -0.299723 z" />
      <path
         id="path1433"
         d="m 26.499758,21.33153 h 0.341065 l 0.423747,1.143773 0.0913,0.279053 0.09474,-0.285943 0.420302,-1.136883 h 0.329007 l -0.678684,1.729439 h -0.34451 z" />
      <path
         id="path1435"
         d="M 29.193825,21.579577 H 28.682228 V 21.33153 h 0.814766 v 1.47967 h 0.515042 v 0.249769 H 28.625384 V 22.8112 h 0.568441 z m 0.105075,-0.97324 q 0.04995,0 0.09302,0.01895 0.04306,0.01723 0.07407,0.04995 0.03273,0.03273 0.04995,0.07579 0.01895,0.04134 0.01895,0.09129 0,0.04823 -0.01895,0.09129 -0.01723,0.04306 -0.04995,0.07579 -0.03101,0.03273 -0.07407,0.05168 -0.04306,0.01723 -0.09302,0.01723 -0.04995,0 -0.09302,-0.01723 -0.04306,-0.01895 -0.07579,-0.05168 -0.03101,-0.03273 -0.04995,-0.07579 -0.01723,-0.04306 -0.01723,-0.09129 0,-0.04995 0.01723,-0.09129 0.01895,-0.04306 0.04995,-0.07579 0.03273,-0.03273 0.07579,-0.04995 0.04306,-0.01895 0.09302,-0.01895 z" />
      <path
         id="path1437"
         d="m 30.618373,21.33153 h 0.273885 l 0.0086,0.318672 q 0.153307,-0.184313 0.301446,-0.266995 0.149862,-0.08268 0.301446,-0.08268 0.268718,0 0.406521,0.173978 0.139527,0.173977 0.129192,0.516764 h -0.303169 q 0.0052,-0.227376 -0.06718,-0.329006 -0.07062,-0.103353 -0.208429,-0.103353 -0.06029,0 -0.122301,0.02239 -0.06029,0.02067 -0.125746,0.0689 -0.06373,0.04651 -0.136081,0.120578 -0.07235,0.07407 -0.15503,0.179145 v 1.111044 h -0.303168 z" />
      <path
         id="path1439"
         d="m 33.996291,22.182469 q 0,0.201539 -0.05684,0.370348 -0.05684,0.167088 -0.163642,0.287666 -0.106798,0.118856 -0.260105,0.186035 -0.153307,0.06546 -0.347955,0.06546 -0.186035,0 -0.334174,-0.05684 -0.146417,-0.05857 -0.24977,-0.170532 -0.10163,-0.111966 -0.156752,-0.277331 -0.0534,-0.165364 -0.0534,-0.380683 0,-0.201538 0.05684,-0.366903 0.05684,-0.167087 0.163642,-0.285943 0.106798,-0.120578 0.260105,-0.186035 0.153307,-0.06718 0.347955,-0.06718 0.186035,0 0.332452,0.05857 0.148139,0.05684 0.24977,0.16881 0.103353,0.110243 0.156752,0.275608 0.05512,0.165364 0.05512,0.37896 z m -0.306614,0.01378 q 0,-0.160197 -0.03617,-0.279053 -0.03445,-0.120579 -0.09991,-0.199816 -0.06546,-0.08096 -0.160197,-0.120578 -0.09302,-0.04134 -0.208428,-0.04134 -0.134359,0 -0.230822,0.0534 -0.09474,0.05168 -0.156752,0.139526 -0.06029,0.08785 -0.08957,0.204983 -0.02756,0.115411 -0.02756,0.24288 0,0.160197 0.03445,0.280775 0.03617,0.120579 0.10163,0.201538 0.06546,0.07924 0.158475,0.120579 0.09302,0.03962 0.210151,0.03962 0.134358,0 0.229099,-0.05168 0.09646,-0.0534 0.156752,-0.141249 0.06201,-0.08785 0.08957,-0.203261 0.02928,-0.117133 0.02928,-0.246324 z" />
      <path
         id="path1441"
         d="m 34.433819,21.33153 h 0.266995 l 0.01206,0.279053 q 0.07579,-0.08957 0.146417,-0.148139 0.07062,-0.06029 0.137804,-0.09646 0.0689,-0.03617 0.139527,-0.04995 0.07062,-0.0155 0.146416,-0.0155 0.266995,0 0.403077,0.158475 0.137803,0.156752 0.137803,0.473701 v 1.128269 h -0.299723 v -1.104154 q 0,-0.20326 -0.07579,-0.299723 -0.07579,-0.09818 -0.225654,-0.09818 -0.05512,0 -0.108521,0.01722 -0.05168,0.0155 -0.10852,0.05684 -0.05684,0.03962 -0.124024,0.108521 -0.06546,0.0689 -0.148139,0.172255 v 1.147217 h -0.299723 z" />
      <path
         id="path1443"
         d="m 37.610199,23.060969 v -1.241957 q 0,-0.08096 -0.0069,-0.132637 -0.0052,-0.05168 -0.01895,-0.08096 -0.01206,-0.03101 -0.03273,-0.04306 -0.01895,-0.01206 -0.04823,-0.01206 -0.03445,0 -0.06373,0.02067 -0.02928,0.02067 -0.06373,0.06718 -0.03273,0.04651 -0.07407,0.124023 -0.03962,0.07579 -0.09474,0.187758 v 1.111044 h -0.273882 v -1.20923 q 0,-0.09474 -0.0069,-0.153307 -0.0052,-0.05857 -0.01895,-0.0913 -0.01206,-0.03273 -0.03273,-0.04479 -0.02067,-0.01206 -0.04995,-0.01206 -0.03101,0 -0.05857,0.01722 -0.02756,0.01723 -0.06201,0.06201 -0.03273,0.04479 -0.07407,0.122301 -0.04134,0.07751 -0.09819,0.198093 v 1.111044 H 36.256275 V 21.33153 h 0.229099 l 0.01378,0.329007 q 0.04479,-0.09819 0.08613,-0.167087 0.04306,-0.0689 0.08785,-0.110243 0.04479,-0.04306 0.09474,-0.06201 0.05168,-0.02067 0.113689,-0.02067 0.139526,0 0.211873,0.0913 0.07235,0.0913 0.07235,0.282498 0.04134,-0.08957 0.08096,-0.158474 0.03962,-0.07062 0.0844,-0.117133 0.04651,-0.04823 0.10163,-0.07235 0.05512,-0.02584 0.127469,-0.02584 0.325561,0 0.325561,0.501262 v 1.259183 z" />
      <path
         id="path1445"
         d="m 39.78061,22.104955 q 0,0.06373 -0.0017,0.106798 -0.0017,0.04306 -0.0052,0.08096 h -1.214397 q 0,0.265272 0.148139,0.408244 0.14814,0.141249 0.427192,0.141249 0.07579,0 0.151585,-0.0052 0.07579,-0.0069 0.146416,-0.01723 0.07062,-0.01033 0.134359,-0.02239 0.06546,-0.01378 0.120579,-0.02928 v 0.246324 q -0.122301,0.03445 -0.277331,0.05512 -0.153307,0.02239 -0.318671,0.02239 -0.222209,0 -0.382406,-0.06029 -0.160197,-0.06029 -0.26355,-0.173977 -0.10163,-0.115411 -0.151584,-0.280776 -0.04823,-0.167087 -0.04823,-0.377238 0,-0.18259 0.05168,-0.34451 0.0534,-0.163642 0.153307,-0.285943 0.10163,-0.124024 0.248047,-0.196371 0.146416,-0.07235 0.332452,-0.07235 0.180867,0 0.320394,0.05684 0.139526,0.05684 0.234266,0.16192 0.09646,0.103353 0.144694,0.253215 0.04995,0.148139 0.04995,0.332452 z m -0.311781,-0.04306 q 0.0052,-0.115411 -0.02239,-0.210151 -0.02756,-0.09646 -0.08613,-0.165365 -0.05684,-0.0689 -0.142971,-0.106798 -0.08613,-0.03962 -0.199816,-0.03962 -0.09819,0 -0.179145,0.0379 -0.08096,0.0379 -0.139526,0.106798 -0.05857,0.0689 -0.09474,0.165364 -0.03617,0.09646 -0.04479,0.211874 z" />
      <path
         id="path1447"
         d="m 40.262924,21.33153 h 0.266995 l 0.01206,0.279053 q 0.07579,-0.08957 0.146417,-0.148139 0.07062,-0.06029 0.137803,-0.09646 0.0689,-0.03617 0.139527,-0.04995 0.07062,-0.0155 0.146417,-0.0155 0.266995,0 0.403076,0.158475 0.137804,0.156752 0.137804,0.473701 v 1.128269 h -0.299724 v -1.104154 q 0,-0.20326 -0.07579,-0.299723 -0.07579,-0.09818 -0.225654,-0.09818 -0.05512,0 -0.10852,0.01722 -0.05168,0.0155 -0.108521,0.05684 -0.05684,0.03962 -0.124023,0.108521 -0.06546,0.0689 -0.14814,0.172255 v 1.147217 h -0.299723 z" />
      <path
         id="path1449"
         d="m 43.599501,23.036854 q -0.10163,0.02584 -0.210151,0.03617 -0.10852,0.01206 -0.220486,0.01206 -0.325562,0 -0.485759,-0.146417 -0.160197,-0.148139 -0.160197,-0.45303 V 21.583022 H 42.038872 V 21.33153 h 0.484036 v -0.475423 l 0.299724,-0.07752 v 0.552938 h 0.776869 v 0.251492 h -0.776869 v 0.8785 q 0,0.186036 0.09819,0.279053 0.09991,0.09129 0.292833,0.09129 0.08268,0 0.180868,-0.01206 0.09819,-0.01378 0.204983,-0.04134 z" />
    </g>
    <g
       style="font-style:normal;font-variant:normal;font-weight:normal;font-stretch:normal;font-size:3.52778px;line-height:1.25;font-family:Consolas;-inkscape-font-specification:Consolas;white-space:pre;shape-inside:url(#rect1028-6-9-2);display:inline;fill:#000000;fill-opacity:1;stroke:none"
       id="text1024-3"
       transform="translate(-12.287822,-5.6094885)"
       aria-label="Class">
      <path
         id="path1418"
         d="m 24.213936,22.976564 q -0.27044,0.111966 -0.566718,0.111966 -0.477146,0 -0.733806,-0.28422 -0.254938,-0.285944 -0.254938,-0.844049 0,-0.270441 0.07063,-0.489204 0.07062,-0.218764 0.201538,-0.370348 0.130914,-0.153307 0.316949,-0.235989 0.186035,-0.08268 0.416857,-0.08268 0.156752,0 0.291111,0.02756 0.134359,0.02584 0.258382,0.08096 v 0.301446 q -0.122301,-0.06718 -0.253215,-0.101631 -0.130913,-0.03617 -0.285943,-0.03617 -0.158474,0 -0.287665,0.06029 -0.127469,0.05857 -0.217041,0.172255 -0.08957,0.111966 -0.137804,0.275608 -0.04823,0.161919 -0.04823,0.370348 0,0.437527 0.177423,0.659736 0.177422,0.222209 0.52021,0.222209 0.144694,0 0.27733,-0.03273 0.132636,-0.03445 0.254937,-0.09474 z" />
      <path
         id="path1420"
         d="m 25.307755,20.873332 h -0.511597 v -0.246324 h 0.814765 V 22.8112 h 0.515042 v 0.249769 H 24.739314 V 22.8112 h 0.568441 z" />
      <path
         id="path1422"
         d="m 27.772722,23.060969 -0.0069,-0.232544 q -0.141249,0.139527 -0.287666,0.201538 -0.144694,0.06201 -0.304891,0.06201 -0.148139,0 -0.253215,-0.0379 -0.105075,-0.0379 -0.173977,-0.103353 -0.06718,-0.06718 -0.09991,-0.156752 -0.03101,-0.08957 -0.03101,-0.194648 0,-0.260105 0.192926,-0.406521 0.194648,-0.14814 0.573608,-0.14814 h 0.358291 v -0.151584 q 0,-0.153307 -0.09819,-0.244602 -0.09819,-0.09302 -0.299723,-0.09302 -0.146417,0 -0.289388,0.03273 -0.141249,0.03273 -0.292834,0.09302 v -0.27044 q 0.05684,-0.02067 0.125746,-0.03962 0.07062,-0.02067 0.14814,-0.03617 0.07751,-0.0155 0.161919,-0.02411 0.08441,-0.01034 0.170533,-0.01034 0.156751,0 0.282498,0.03445 0.125746,0.03445 0.211873,0.105076 0.08785,0.07062 0.134359,0.177422 0.04651,0.106798 0.04651,0.251493 v 1.192003 z m -0.03273,-0.787205 H 27.35931 q -0.111965,0 -0.192925,0.02239 -0.08096,0.02239 -0.132636,0.06373 -0.05168,0.04134 -0.07752,0.09991 -0.02412,0.05684 -0.02412,0.129191 0,0.04995 0.0155,0.09646 0.0155,0.04479 0.04995,0.08096 0.03445,0.03445 0.08957,0.05512 0.05512,0.02067 0.134358,0.02067 0.103353,0 0.23599,-0.06201 0.134358,-0.06373 0.282498,-0.199816 z" />
      <path
         id="path1424"
         d="m 29.97414,22.588991 q 0,0.09129 -0.03101,0.163642 -0.03101,0.07235 -0.08441,0.129191 -0.0534,0.05512 -0.124024,0.09474 -0.07062,0.03962 -0.151584,0.06546 -0.07924,0.02584 -0.163642,0.0379 -0.08441,0.01206 -0.165365,0.01206 -0.1757,0 -0.323839,-0.0155 -0.146417,-0.0155 -0.287666,-0.04995 v -0.275607 q 0.151585,0.04306 0.301446,0.06546 0.149862,0.02239 0.298001,0.02239 0.215319,0 0.318672,-0.05857 0.103353,-0.05857 0.103353,-0.167087 0,-0.04651 -0.01723,-0.08268 -0.0155,-0.0379 -0.05857,-0.07062 -0.04306,-0.03445 -0.134359,-0.07062 -0.08957,-0.03617 -0.246325,-0.08268 -0.117133,-0.03445 -0.217041,-0.07751 -0.09819,-0.04479 -0.170532,-0.105075 -0.07235,-0.06029 -0.113688,-0.141249 -0.04134,-0.08096 -0.04134,-0.191203 0,-0.07235 0.03273,-0.158475 0.03445,-0.08613 0.115411,-0.160197 0.08096,-0.07407 0.218763,-0.122301 0.137804,-0.04995 0.34451,-0.04995 0.10163,0 0.225654,0.01206 0.124023,0.01034 0.258382,0.0379 v 0.266995 q -0.141249,-0.03445 -0.268717,-0.04995 -0.125746,-0.01722 -0.218764,-0.01722 -0.111966,0 -0.18948,0.01722 -0.07579,0.01723 -0.124024,0.04823 -0.04651,0.02928 -0.06718,0.07062 -0.02067,0.03962 -0.02067,0.08613 0,0.04651 0.01723,0.08441 0.01895,0.0379 0.06718,0.07407 0.04995,0.03445 0.137804,0.07062 0.08785,0.03445 0.229099,0.07579 0.153307,0.04479 0.258382,0.09474 0.105076,0.04823 0.170533,0.108521 0.06546,0.06029 0.09302,0.136081 0.02928,0.07579 0.02928,0.172255 z" />
      <path
         id="path1426"
         d="m 31.917175,22.588991 q 0,0.09129 -0.03101,0.163642 -0.03101,0.07235 -0.08441,0.129191 -0.0534,0.05512 -0.124024,0.09474 -0.07062,0.03962 -0.151584,0.06546 -0.07924,0.02584 -0.163642,0.0379 -0.08441,0.01206 -0.165365,0.01206 -0.1757,0 -0.323839,-0.0155 -0.146417,-0.0155 -0.287666,-0.04995 v -0.275607 q 0.151585,0.04306 0.301446,0.06546 0.149862,0.02239 0.298001,0.02239 0.215319,0 0.318672,-0.05857 0.103353,-0.05857 0.103353,-0.167087 0,-0.04651 -0.01723,-0.08268 -0.0155,-0.0379 -0.05857,-0.07062 -0.04306,-0.03445 -0.134359,-0.07062 -0.08957,-0.03617 -0.246325,-0.08268 -0.117133,-0.03445 -0.217041,-0.07751 -0.09819,-0.04479 -0.170532,-0.105075 -0.07235,-0.06029 -0.113688,-0.141249 -0.04134,-0.08096 -0.04134,-0.191203 0,-0.07235 0.03273,-0.158475 0.03445,-0.08613 0.115411,-0.160197 0.08096,-0.07407 0.218763,-0.122301 0.137804,-0.04995 0.34451,-0.04995 0.101631,0 0.225654,0.01206 0.124024,0.01034 0.258382,0.0379 v 0.266995 q -0.141249,-0.03445 -0.268717,-0.04995 -0.125746,-0.01722 -0.218764,-0.01722 -0.111966,0 -0.18948,0.01722 -0.07579,0.01723 -0.124024,0.04823 -0.04651,0.02928 -0.06718,0.07062 -0.02067,0.03962 -0.02067,0.08613 0,0.04651 0.01723,0.08441 0.01895,0.0379 0.06718,0.07407 0.04995,0.03445 0.137804,0.07062 0.08785,0.03445 0.229099,0.07579 0.153307,0.04479 0.258382,0.09474 0.105076,0.04823 0.170533,0.108521 0.06546,0.06029 0.09302,0.136081 0.02928,0.07579 0.02928,0.172255 z" />
    </g>
    <g
       style="font-style:normal;font-variant:normal;font-weight:normal;font-stretch:normal;font-size:3.52778px;line-height:1.25;font-family:Consolas;-inkscape-font-specification:Consolas;white-space:pre;shape-inside:url(#rect1036-8-6-3);display:inline;fill:#000000;fill-opacity:1;stroke:none"
       id="text1032-2"
       transform="translate(-13.227475,31.89051)"
       aria-label="Method">
      <path
         id="path1405"
         d="m 24.355185,23.060969 h -0.299723 l -0.04479,-1.403877 -0.01895,-0.539158 -0.105075,0.313504 -0.332452,0.895726 h -0.211874 l -0.316949,-0.861275 -0.105075,-0.347955 -0.0069,0.563274 -0.03962,1.379761 h -0.289388 l 0.110243,-2.251371 h 0.363458 l 0.303168,0.847494 0.09819,0.285943 0.09474,-0.285943 0.318671,-0.847494 h 0.373794 z" />
      <path
         id="path1407"
         d="m 26.179364,22.104955 q 0,0.06373 -0.0017,0.106798 -0.0017,0.04306 -0.0052,0.08096 h -1.214397 q 0,0.265272 0.148139,0.408244 0.14814,0.141249 0.427193,0.141249 0.07579,0 0.151584,-0.0052 0.07579,-0.0069 0.146417,-0.01723 0.07062,-0.01033 0.134358,-0.02239 0.06546,-0.01378 0.120579,-0.02928 v 0.246324 q -0.122301,0.03445 -0.277331,0.05512 -0.153306,0.02239 -0.318671,0.02239 -0.222209,0 -0.382406,-0.06029 -0.160197,-0.06029 -0.26355,-0.173977 -0.10163,-0.115411 -0.151584,-0.280776 -0.04823,-0.167087 -0.04823,-0.377238 0,-0.18259 0.05168,-0.34451 0.0534,-0.163642 0.153307,-0.285943 0.10163,-0.124024 0.248047,-0.196371 0.146416,-0.07235 0.332452,-0.07235 0.180867,0 0.320394,0.05684 0.139526,0.05684 0.234266,0.16192 0.09646,0.103353 0.144694,0.253215 0.04995,0.148139 0.04995,0.332452 z m -0.311781,-0.04306 q 0.0052,-0.115411 -0.02239,-0.210151 -0.02756,-0.09646 -0.08613,-0.165365 -0.05684,-0.0689 -0.142971,-0.106798 -0.08613,-0.03962 -0.199816,-0.03962 -0.09818,0 -0.179145,0.0379 -0.08096,0.0379 -0.139526,0.106798 -0.05857,0.0689 -0.09474,0.165364 -0.03617,0.09646 -0.04479,0.211874 z" />
      <path
         id="path1409"
         d="m 28.05522,23.036854 q -0.10163,0.02584 -0.210151,0.03617 -0.10852,0.01206 -0.220486,0.01206 -0.325562,0 -0.485759,-0.146417 -0.160197,-0.148139 -0.160197,-0.45303 V 21.583022 H 26.494591 V 21.33153 h 0.484036 v -0.475423 l 0.299724,-0.07752 v 0.552938 h 0.776869 v 0.251492 h -0.776869 v 0.8785 q 0,0.186036 0.09819,0.279053 0.09991,0.09129 0.292833,0.09129 0.08268,0 0.180868,-0.01206 0.09819,-0.01378 0.204983,-0.04134 z" />
      <path
         id="path1411"
         d="m 29.99481,23.060969 h -0.299723 v -1.104154 q 0,-0.199815 -0.07579,-0.298 -0.07407,-0.09991 -0.213596,-0.09991 -0.06029,0 -0.113688,0.01722 -0.05168,0.0155 -0.10852,0.05684 -0.05684,0.03962 -0.124024,0.108521 -0.06718,0.0689 -0.155029,0.172255 v 1.147217 h -0.299724 v -2.433961 h 0.299724 v 0.704522 l -0.01034,0.272163 q 0.07062,-0.08441 0.137804,-0.141249 0.0689,-0.05857 0.136082,-0.09474 0.0689,-0.03617 0.139526,-0.05168 0.07062,-0.0155 0.146417,-0.0155 0.258382,0 0.399631,0.158475 0.141249,0.156752 0.141249,0.473701 z" />
      <path
         id="path1413"
         d="m 32.053256,22.182469 q 0,0.201539 -0.05684,0.370348 -0.05684,0.167088 -0.163642,0.287666 -0.106798,0.118856 -0.260105,0.186035 -0.153307,0.06546 -0.347955,0.06546 -0.186035,0 -0.334174,-0.05684 -0.146417,-0.05857 -0.24977,-0.170532 -0.10163,-0.111966 -0.156752,-0.277331 -0.0534,-0.165364 -0.0534,-0.380683 0,-0.201538 0.05684,-0.366903 0.05684,-0.167087 0.163642,-0.285943 0.106798,-0.120578 0.260105,-0.186035 0.153307,-0.06718 0.347955,-0.06718 0.186035,0 0.332452,0.05857 0.148139,0.05684 0.24977,0.16881 0.103352,0.110243 0.156751,0.275608 0.05512,0.165364 0.05512,0.37896 z m -0.306614,0.01378 q 0,-0.160197 -0.03617,-0.279053 -0.03445,-0.120579 -0.09991,-0.199816 -0.06546,-0.08096 -0.160197,-0.120578 -0.09302,-0.04134 -0.208428,-0.04134 -0.134359,0 -0.230822,0.0534 -0.09474,0.05168 -0.156752,0.139526 -0.06029,0.08785 -0.08957,0.204983 -0.02756,0.115411 -0.02756,0.24288 0,0.160197 0.03445,0.280775 0.03617,0.120579 0.10163,0.201538 0.06546,0.07924 0.158475,0.120579 0.09302,0.03962 0.210151,0.03962 0.134358,0 0.229099,-0.05168 0.09646,-0.0534 0.156751,-0.141249 0.06201,-0.08785 0.08957,-0.203261 0.02928,-0.117133 0.02928,-0.246324 z" />
      <path
         id="path1415"
         d="m 32.402933,22.232423 q 0,-0.220486 0.06029,-0.391018 0.06029,-0.172255 0.170532,-0.289388 0.111966,-0.118856 0.266995,-0.179146 0.156752,-0.06201 0.347955,-0.06201 0.08268,0 0.16192,0.01033 0.08096,0.01034 0.158474,0.03273 v -0.726915 h 0.301446 v 2.433961 h -0.268718 l -0.01033,-0.327284 q -0.125746,0.18259 -0.272163,0.27044 -0.146416,0.08785 -0.316949,0.08785 -0.148139,0 -0.261827,-0.06201 -0.111966,-0.06201 -0.187758,-0.173977 -0.07407,-0.113688 -0.111965,-0.272163 -0.0379,-0.158474 -0.0379,-0.3514 z m 0.306614,-0.01895 q 0,0.313504 0.0913,0.468534 0.09302,0.153306 0.261828,0.153306 0.113688,0 0.239434,-0.10163 0.127469,-0.10163 0.266995,-0.301446 v -0.802708 q -0.07407,-0.03445 -0.163642,-0.05168 -0.08957,-0.01895 -0.177423,-0.01895 -0.244602,0 -0.382405,0.158474 -0.136082,0.158475 -0.136082,0.496094 z" />
    </g>
    <g
       style="font-style:normal;font-variant:normal;font-weight:normal;font-stretch:normal;font-size:3.52778px;line-height:1.25;font-family:Consolas;-inkscape-font-specification:Consolas;white-space:pre;shape-inside:url(#rect964-1-7-1);display:inline;fill:#000000;fill-opacity:1;stroke:none;stroke-width:1;stroke-miterlimit:4;stroke-dasharray:none"
       id="text960-7"
       transform="translate(-14.357466,6.8905071)"
       aria-label="Problem">
      <path
         id="path1390"
         style="stroke-width:1;stroke-miterlimit:4;stroke-dasharray:none"
         d="m 24.25011,21.498618 q 0,0.137803 -0.05168,0.273885 -0.05168,0.134359 -0.160197,0.241157 -0.10852,0.106798 -0.27733,0.173977 -0.16881,0.06546 -0.403077,0.06546 h -0.279053 v 0.807875 H 22.77216 v -2.251371 h 0.633898 q 0.167087,0 0.320394,0.0379 0.153307,0.03617 0.268717,0.118856 0.117134,0.08268 0.186036,0.213596 0.0689,0.130914 0.0689,0.318672 z m -0.318672,0.01378 q 0,-0.217041 -0.142971,-0.332452 -0.141249,-0.115411 -0.396187,-0.115411 h -0.313504 v 0.926731 h 0.285944 q 0.272162,0 0.418579,-0.118855 0.148139,-0.118856 0.148139,-0.360013 z" />
      <path
         id="path1392"
         style="stroke-width:1;stroke-miterlimit:4;stroke-dasharray:none"
         d="m 24.789267,21.33153 h 0.273886 l 0.0086,0.318672 q 0.153307,-0.184313 0.301447,-0.266995 0.149861,-0.08268 0.301446,-0.08268 0.268717,0 0.406521,0.173978 0.139527,0.173977 0.129191,0.516764 H 25.90719 q 0.0052,-0.227376 -0.06718,-0.329006 -0.07062,-0.103353 -0.208428,-0.103353 -0.06029,0 -0.122301,0.02239 -0.06029,0.02067 -0.125746,0.0689 -0.06374,0.04651 -0.136082,0.120578 -0.07235,0.07407 -0.155029,0.179145 v 1.111044 h -0.303169 z" />
      <path
         id="path1394"
         style="stroke-width:1;stroke-miterlimit:4;stroke-dasharray:none"
         d="m 28.167186,22.182469 q 0,0.201539 -0.05684,0.370348 -0.05684,0.167088 -0.163642,0.287666 -0.106799,0.118856 -0.260105,0.186035 -0.153307,0.06546 -0.347955,0.06546 -0.186036,0 -0.334175,-0.05684 -0.146416,-0.05857 -0.249769,-0.170532 -0.101631,-0.111966 -0.156752,-0.277331 -0.0534,-0.165364 -0.0534,-0.380683 0,-0.201538 0.05684,-0.366903 0.05684,-0.167087 0.163642,-0.285943 0.106798,-0.120578 0.260105,-0.186035 0.153307,-0.06718 0.347955,-0.06718 0.186035,0 0.332452,0.05857 0.148139,0.05684 0.249769,0.16881 0.103353,0.110243 0.156752,0.275608 0.05512,0.165364 0.05512,0.37896 z m -0.306614,0.01378 q 0,-0.160197 -0.03617,-0.279053 -0.03445,-0.120579 -0.09991,-0.199816 -0.06546,-0.08096 -0.160197,-0.120578 -0.09302,-0.04134 -0.208429,-0.04134 -0.134359,0 -0.230821,0.0534 -0.09474,0.05168 -0.156752,0.139526 -0.06029,0.08785 -0.08957,0.204983 -0.02756,0.115411 -0.02756,0.24288 0,0.160197 0.03445,0.280775 0.03617,0.120579 0.101631,0.201538 0.06546,0.07924 0.158474,0.120579 0.09302,0.03962 0.210151,0.03962 0.134359,0 0.229099,-0.05168 0.09646,-0.0534 0.156752,-0.141249 0.06201,-0.08785 0.08957,-0.203261 0.02928,-0.117133 0.02928,-0.246324 z" />
      <path
         id="path1396"
         style="stroke-width:1;stroke-miterlimit:4;stroke-dasharray:none"
         d="m 30.08266,22.165244 q 0,0.215319 -0.06029,0.385851 -0.05857,0.16881 -0.16881,0.287666 -0.10852,0.117133 -0.265272,0.180867 -0.156752,0.06201 -0.353123,0.06201 -0.153307,0 -0.313504,-0.02928 -0.160197,-0.02928 -0.316949,-0.09302 v -2.332331 h 0.299724 v 0.670071 l -0.01378,0.320394 q 0.129191,-0.173977 0.275608,-0.244602 0.148139,-0.07235 0.316949,-0.07235 0.148139,0 0.260105,0.06201 0.111966,0.06201 0.187758,0.1757 0.07579,0.111966 0.113688,0.272163 0.0379,0.158474 0.0379,0.354845 z m -0.306614,0.01378 q 0,-0.136081 -0.02067,-0.249769 -0.01895,-0.113689 -0.06201,-0.194648 -0.04306,-0.08096 -0.110243,-0.125746 -0.06718,-0.04651 -0.160197,-0.04651 -0.05684,0 -0.115411,0.01895 -0.05857,0.01722 -0.122301,0.06029 -0.06201,0.04134 -0.132636,0.111966 -0.0689,0.0689 -0.148139,0.172255 v 0.838881 q 0.08785,0.03445 0.179145,0.05512 0.09129,0.01895 0.173977,0.01895 0.103353,0 0.196371,-0.03273 0.09474,-0.03273 0.165364,-0.10852 0.07235,-0.07751 0.113689,-0.203261 0.04306,-0.127469 0.04306,-0.315227 z" />
      <path
         id="path1398"
         style="stroke-width:1;stroke-miterlimit:4;stroke-dasharray:none"
         d="m 31.13686,20.873332 h -0.511597 v -0.246324 h 0.814766 V 22.8112 h 0.515042 v 0.249769 H 30.568419 V 22.8112 h 0.568441 z" />
      <path
         id="path1400"
         style="stroke-width:1;stroke-miterlimit:4;stroke-dasharray:none"
         d="m 33.951505,22.104955 q 0,0.06373 -0.0017,0.106798 -0.0017,0.04306 -0.0052,0.08096 h -1.214397 q 0,0.265272 0.148139,0.408244 0.148139,0.141249 0.427192,0.141249 0.07579,0 0.151584,-0.0052 0.07579,-0.0069 0.146417,-0.01723 0.07062,-0.01033 0.134359,-0.02239 0.06546,-0.01378 0.120578,-0.02928 v 0.246324 q -0.122301,0.03445 -0.27733,0.05512 -0.153307,0.02239 -0.318672,0.02239 -0.222208,0 -0.382406,-0.06029 -0.160197,-0.06029 -0.263549,-0.173977 -0.101631,-0.115411 -0.151585,-0.280776 -0.04823,-0.167087 -0.04823,-0.377238 0,-0.18259 0.05168,-0.34451 0.0534,-0.163642 0.153307,-0.285943 0.101631,-0.124024 0.248047,-0.196371 0.146417,-0.07235 0.332452,-0.07235 0.180868,0 0.320394,0.05684 0.139527,0.05684 0.234267,0.16192 0.09646,0.103353 0.144694,0.253215 0.04995,0.148139 0.04995,0.332452 z m -0.311781,-0.04306 q 0.0052,-0.115411 -0.02239,-0.210151 -0.02756,-0.09646 -0.08613,-0.165365 -0.05684,-0.0689 -0.142972,-0.106798 -0.08613,-0.03962 -0.199815,-0.03962 -0.09819,0 -0.179145,0.0379 -0.08096,0.0379 -0.139527,0.106798 -0.05857,0.0689 -0.09474,0.165364 -0.03617,0.09646 -0.04479,0.211874 z" />
      <path
         id="path1402"
         style="stroke-width:1;stroke-miterlimit:4;stroke-dasharray:none"
         d="m 35.667164,23.060969 v -1.241957 q 0,-0.08096 -0.0069,-0.132637 -0.0052,-0.05168 -0.01895,-0.08096 -0.01206,-0.03101 -0.03273,-0.04306 -0.01895,-0.01206 -0.04823,-0.01206 -0.03445,0 -0.06374,0.02067 -0.02928,0.02067 -0.06373,0.06718 -0.03273,0.04651 -0.07407,0.124023 -0.03962,0.07579 -0.09474,0.187758 v 1.111044 h -0.273872 v -1.20923 q 0,-0.09474 -0.0069,-0.153307 -0.0052,-0.05857 -0.01895,-0.0913 -0.01206,-0.03273 -0.03273,-0.04479 -0.02067,-0.01206 -0.04995,-0.01206 -0.03101,0 -0.05857,0.01722 -0.02756,0.01723 -0.06201,0.06201 -0.03273,0.04479 -0.07407,0.122301 -0.04134,0.07751 -0.09819,0.198093 v 1.111044 H 34.31324 V 21.33153 h 0.229099 l 0.01378,0.329007 q 0.04479,-0.09819 0.08613,-0.167087 0.04306,-0.0689 0.08785,-0.110243 0.04479,-0.04306 0.09474,-0.06201 0.05168,-0.02067 0.113688,-0.02067 0.139527,0 0.211874,0.0913 0.07235,0.0913 0.07235,0.282498 0.04134,-0.08957 0.08096,-0.158474 0.03962,-0.07062 0.08441,-0.117133 0.04651,-0.04823 0.10163,-0.07235 0.05512,-0.02584 0.127469,-0.02584 0.325561,0 0.325561,0.501262 v 1.259183 z" />
    </g>
    <g
       style="font-style:normal;font-variant:normal;font-weight:normal;font-stretch:normal;font-size:3.52778px;line-height:1.25;font-family:Consolas;-inkscape-font-specification:Consolas;white-space:pre;shape-inside:url(#rect1012-7-7-7);display:inline;fill:#000000;fill-opacity:1;stroke:none"
       id="text1008-5"
       transform="translate(-15.229076,19.400837)"
       aria-label="Solution">
      <path
         id="path1373"
         d="m 24.217381,22.451187 q 0,0.160197 -0.06546,0.280775 -0.06546,0.120579 -0.18259,0.201539 -0.117133,0.07924 -0.282498,0.118856 -0.163642,0.03962 -0.361735,0.03962 -0.08957,0 -0.179145,-0.0069 -0.08785,-0.0069 -0.170533,-0.01722 -0.08096,-0.01034 -0.153306,-0.02412 -0.07235,-0.01378 -0.130914,-0.02928 v -0.296278 q 0.129191,0.04823 0.289388,0.07579 0.16192,0.02756 0.366903,0.02756 0.148139,0 0.251492,-0.02239 0.105076,-0.02412 0.170533,-0.0689 0.06718,-0.04651 0.09646,-0.111966 0.03101,-0.06546 0.03101,-0.149861 0,-0.0913 -0.05168,-0.15503 -0.04995,-0.06546 -0.132637,-0.115411 -0.08268,-0.05168 -0.18948,-0.09302 -0.105075,-0.04306 -0.215319,-0.08785 -0.110243,-0.04479 -0.217041,-0.09646 -0.105075,-0.0534 -0.187758,-0.124024 -0.08268,-0.07235 -0.134358,-0.168809 -0.04995,-0.09646 -0.04995,-0.229099 0,-0.115411 0.04823,-0.227377 0.04823,-0.111965 0.149862,-0.198093 0.10163,-0.08785 0.260105,-0.141249 0.160197,-0.0534 0.380683,-0.0534 0.05684,0 0.122301,0.0052 0.06718,0.0052 0.134359,0.0155 0.0689,0.0086 0.134359,0.02067 0.06718,0.01206 0.124023,0.02584 v 0.275608 q -0.132636,-0.0379 -0.265272,-0.05684 -0.132637,-0.02067 -0.25666,-0.02067 -0.26355,0 -0.387574,0.08785 -0.124023,0.08785 -0.124023,0.235989 0,0.09129 0.04995,0.156752 0.05168,0.06546 0.134359,0.117133 0.08268,0.05168 0.187757,0.09474 0.106798,0.04134 0.217042,0.08613 0.110243,0.04479 0.215318,0.09819 0.106798,0.0534 0.18948,0.127469 0.08268,0.07235 0.132637,0.170532 0.05168,0.09819 0.05168,0.232544 z" />
      <path
         id="path1375"
         d="m 26.224151,22.182469 q 0,0.201539 -0.05684,0.370348 -0.05685,0.167088 -0.163643,0.287666 -0.106798,0.118856 -0.260104,0.186035 -0.153307,0.06546 -0.347955,0.06546 -0.186036,0 -0.334175,-0.05684 -0.146416,-0.05857 -0.249769,-0.170532 -0.101631,-0.111966 -0.156752,-0.277331 -0.0534,-0.165364 -0.0534,-0.380683 0,-0.201538 0.05684,-0.366903 0.05684,-0.167087 0.163642,-0.285943 0.106798,-0.120578 0.260105,-0.186035 0.153307,-0.06718 0.347955,-0.06718 0.186035,0 0.332452,0.05857 0.148139,0.05684 0.249769,0.16881 0.103353,0.110243 0.156752,0.275608 0.05512,0.165364 0.05512,0.37896 z m -0.306614,0.01378 q 0,-0.160197 -0.03617,-0.279053 -0.03445,-0.120579 -0.09991,-0.199816 -0.06546,-0.08096 -0.160197,-0.120578 -0.09302,-0.04134 -0.208429,-0.04134 -0.134359,0 -0.230821,0.0534 -0.09474,0.05168 -0.156752,0.139526 -0.06029,0.08785 -0.08957,0.204983 -0.02756,0.115411 -0.02756,0.24288 0,0.160197 0.03445,0.280775 0.03617,0.120579 0.101631,0.201538 0.06546,0.07924 0.158474,0.120579 0.09302,0.03962 0.210151,0.03962 0.134359,0 0.229099,-0.05168 0.09646,-0.0534 0.156752,-0.141249 0.06201,-0.08785 0.08957,-0.203261 0.02928,-0.117133 0.02928,-0.246324 z" />
      <path
         id="path1377"
         d="m 27.25079,20.873332 h -0.511597 v -0.246324 h 0.814765 V 22.8112 H 28.069 v 0.249769 H 26.682349 V 22.8112 h 0.568441 z" />
      <path
         id="path1379"
         d="m 29.99481,23.060969 h -0.268718 l -0.01034,-0.279053 q -0.07751,0.08957 -0.148139,0.149862 -0.0689,0.05857 -0.137804,0.09474 -0.0689,0.03617 -0.139526,0.04995 -0.0689,0.0155 -0.146417,0.0155 -0.266995,0 -0.403076,-0.156752 -0.136082,-0.156752 -0.136082,-0.473701 V 21.33153 h 0.299724 v 1.105877 q 0,0.397908 0.299723,0.397908 0.05512,0 0.106798,-0.0155 0.0534,-0.01722 0.110243,-0.05684 0.05857,-0.04134 0.124024,-0.110243 0.06718,-0.0689 0.149862,-0.173977 V 21.33153 h 0.299723 z" />
      <path
         id="path1381"
         d="m 31.94129,23.036854 q -0.10163,0.02584 -0.210151,0.03617 -0.10852,0.01206 -0.220486,0.01206 -0.325562,0 -0.485759,-0.146417 -0.160197,-0.148139 -0.160197,-0.45303 V 21.583022 H 30.380661 V 21.33153 h 0.484036 v -0.475423 l 0.299724,-0.07752 v 0.552938 h 0.776869 v 0.251492 h -0.776869 v 0.8785 q 0,0.186036 0.09819,0.279053 0.09991,0.09129 0.292833,0.09129 0.08268,0 0.180868,-0.01206 0.09819,-0.01378 0.204983,-0.04134 z" />
      <path
         id="path1383"
         d="M 33.079895,21.579577 H 32.568298 V 21.33153 h 0.814766 v 1.47967 h 0.515042 v 0.249769 H 32.511454 V 22.8112 h 0.568441 z m 0.105076,-0.97324 q 0.04995,0 0.09302,0.01895 0.04306,0.01723 0.07407,0.04995 0.03273,0.03273 0.04995,0.07579 0.01895,0.04134 0.01895,0.09129 0,0.04823 -0.01895,0.09129 -0.01723,0.04306 -0.04995,0.07579 -0.03101,0.03273 -0.07407,0.05168 -0.04306,0.01723 -0.09302,0.01723 -0.04995,0 -0.09302,-0.01723 -0.04306,-0.01895 -0.07579,-0.05168 -0.03101,-0.03273 -0.04995,-0.07579 -0.01723,-0.04306 -0.01723,-0.09129 0,-0.04995 0.01723,-0.09129 0.01895,-0.04306 0.04995,-0.07579 0.03273,-0.03273 0.07579,-0.04995 0.04306,-0.01895 0.09302,-0.01895 z" />
      <path
         id="path1385"
         d="m 35.939326,22.182469 q 0,0.201539 -0.05684,0.370348 -0.05684,0.167088 -0.163642,0.287666 -0.106798,0.118856 -0.260105,0.186035 -0.153307,0.06546 -0.347955,0.06546 -0.186035,0 -0.334174,-0.05684 -0.146417,-0.05857 -0.24977,-0.170532 -0.10163,-0.111966 -0.156752,-0.277331 -0.0534,-0.165364 -0.0534,-0.380683 0,-0.201538 0.05684,-0.366903 0.05684,-0.167087 0.163643,-0.285943 0.106798,-0.120578 0.260104,-0.186035 0.153307,-0.06718 0.347955,-0.06718 0.186036,0 0.332452,0.05857 0.148139,0.05684 0.24977,0.16881 0.103353,0.110243 0.156752,0.275608 0.05512,0.165364 0.05512,0.37896 z m -0.306613,0.01378 q 0,-0.160197 -0.03617,-0.279053 -0.03445,-0.120579 -0.09991,-0.199816 -0.06546,-0.08096 -0.160197,-0.120578 -0.09302,-0.04134 -0.208428,-0.04134 -0.134359,0 -0.230822,0.0534 -0.09474,0.05168 -0.156752,0.139526 -0.06029,0.08785 -0.08957,0.204983 -0.02756,0.115411 -0.02756,0.24288 0,0.160197 0.03445,0.280775 0.03617,0.120579 0.10163,0.201538 0.06546,0.07924 0.158475,0.120579 0.09302,0.03962 0.210151,0.03962 0.134359,0 0.229099,-0.05168 0.09646,-0.0534 0.156752,-0.141249 0.06201,-0.08785 0.08957,-0.203261 0.02928,-0.117133 0.02928,-0.246324 z" />
      <path
         id="path1387"
         d="m 36.376854,21.33153 h 0.266995 l 0.01206,0.279053 q 0.07579,-0.08957 0.146416,-0.148139 0.07062,-0.06029 0.137804,-0.09646 0.0689,-0.03617 0.139527,-0.04995 0.07062,-0.0155 0.146416,-0.0155 0.266995,0 0.403077,0.158475 0.137804,0.156752 0.137804,0.473701 v 1.128269 h -0.299724 v -1.104154 q 0,-0.20326 -0.07579,-0.299723 -0.07579,-0.09818 -0.225654,-0.09818 -0.05512,0 -0.108521,0.01722 -0.05168,0.0155 -0.10852,0.05684 -0.05684,0.03962 -0.124024,0.108521 -0.06546,0.0689 -0.148139,0.172255 v 1.147217 h -0.299723 z" />
    </g>
    <g
       transform="translate(3.175,1.4552083)"
       style="font-style:normal;font-variant:normal;font-weight:normal;font-stretch:normal;font-size:2.82223px;line-height:1.25;font-family:Consolas;-inkscape-font-specification:Consolas;display:inline;fill:#000000;fill-opacity:1;stroke:none;stroke-width:0.264583"
       id="text1096-0"
       aria-label="1">
      <path
         id="path1557"
         style="font-style:normal;font-variant:normal;font-weight:normal;font-stretch:normal;font-size:2.82223px;font-family:Consolas;-inkscape-font-specification:Consolas;stroke-width:0.264583"
         d="m 35.446124,49.492657 h -1.131373 v -0.223243 h 0.463023 v -1.314652 l -0.431328,0.234267 -0.08819,-0.20395 0.573265,-0.301791 h 0.212219 v 1.586126 h 0.402388 z" />
    </g>
    <g
       transform="translate(-0.52916667,-0.72760416)"
       style="font-style:normal;font-variant:normal;font-weight:normal;font-stretch:normal;font-size:2.82223px;line-height:1.25;font-family:Consolas;-inkscape-font-specification:Consolas;display:inline;fill:#000000;fill-opacity:1;stroke:none;stroke-width:0.264583"
       id="text1100-8"
       aria-label="n">
      <path
         id="path1554"
         style="font-style:normal;font-variant:normal;font-weight:normal;font-stretch:normal;font-size:2.82223px;font-family:Consolas;-inkscape-font-specification:Consolas;stroke-width:0.264583"
         d="m 28.024434,42.100695 h 0.213597 l 0.0096,0.223243 q 0.06063,-0.07166 0.117134,-0.118512 0.0565,-0.04823 0.110243,-0.07717 0.05512,-0.02894 0.111621,-0.03996 0.0565,-0.0124 0.117134,-0.0124 0.213596,0 0.322462,0.12678 0.110243,0.125402 0.110243,0.378962 v 0.902617 H 28.896689 V 42.60093 q 0,-0.162609 -0.06063,-0.239779 -0.06063,-0.07855 -0.180524,-0.07855 -0.0441,0 -0.08682,0.01378 -0.04134,0.0124 -0.08682,0.04548 -0.04547,0.03169 -0.09922,0.08682 -0.05237,0.05512 -0.118512,0.137804 v 0.917776 h -0.239779 z" />
    </g>
  </g>
  <g
     transform="translate(0.21167031,-2.7066665)"
     inkscape:label="Icons"
     id="layer14"
     inkscape:groupmode="layer">
    <path
       id="path1621"
       d="m 23.455743,26.948944 a 0.37536415,0.37536415 0 0 1 -0.375365,-0.375365 0.37536415,0.37536415 0 0 1 0.375365,-0.375365 0.37536415,0.37536415 0 0 1 0.375364,0.375365 0.37536415,0.37536415 0 0 1 -0.375364,0.375365 m 0.796844,-0.271335 c 0.0042,-0.03432 0.0075,-0.06864 0.0075,-0.10403 0,-0.03539 -0.0033,-0.07079 -0.0075,-0.107247 l 0.226291,-0.174812 c 0.02038,-0.01608 0.02574,-0.04504 0.01287,-0.06864 l -0.214495,-0.371073 c -0.01287,-0.0236 -0.04183,-0.03325 -0.06542,-0.0236 l -0.267047,0.10725 c -0.05577,-0.04183 -0.11368,-0.07829 -0.181246,-0.105103 l -0.03968,-0.284203 c -0.0042,-0.02574 -0.02682,-0.04505 -0.05363,-0.04505 h -0.428989 c -0.02682,0 -0.04933,0.01931 -0.05363,0.04505 l -0.03968,0.284204 c -0.06756,0.02682 -0.125478,0.06328 -0.181248,0.105102 l -0.267045,-0.10725 c -0.0236,-0.0096 -0.05255,0 -0.06542,0.0236 l -0.214494,0.371076 c -0.01395,0.0236 -0.0075,0.05255 0.01287,0.06864 l 0.226292,0.174812 c -0.0043,0.03646 -0.0075,0.07185 -0.0075,0.107247 0,0.03539 0.0033,0.06972 0.0075,0.104029 l -0.226292,0.17803 c -0.02038,0.01608 -0.02682,0.04505 -0.01287,0.06864 l 0.214494,0.371074 c 0.01287,0.0236 0.04183,0.03217 0.06542,0.0236 l 0.267044,-0.10832 c 0.05577,0.0429 0.113681,0.07936 0.181248,0.106175 l 0.03968,0.284205 c 0.0043,0.02574 0.02682,0.04505 0.05363,0.04505 h 0.428987 c 0.02682,0 0.04933,-0.01931 0.05362,-0.04505 l 0.03968,-0.284205 c 0.06756,-0.02788 0.125479,-0.06327 0.181247,-0.106175 l 0.267045,0.10832 c 0.0236,0.0086 0.05255,0 0.06542,-0.0236 l 0.214493,-0.371075 c 0.01287,-0.0236 0.0075,-0.05255 -0.01287,-0.06864 z"
       style="stroke-width:0.107247" />
    <path
       style="stroke-width:0.102982"
       d="m 65.330729,12.947877 a 0.20596511,0.20596511 0 0 0 -0.20596,0.205965 v 1.647721 a 0.20596511,0.20596511 0 0 0 0.20596,0.205965 h 1.23579 a 0.20596511,0.20596511 0 0 0 0.20597,-0.205965 v -1.23579 l -0.6179,-0.617896 h -0.82386 m 0,0.205965 h 0.72088 v 0.514913 h 0.51491 v 1.132808 h -1.23579 v -1.647721 m 0.20597,0.82386 v 0.205965 h 0.82386 v -0.205965 h -0.82386 m 0,0.411931 v 0.205965 h 0.51491 v -0.205965 z"
       id="path1663" />
    <use
       height="100%"
       width="100%"
       transform="translate(-3.8156196e-6,12.499998)"
       id="use1674"
       xlink:href="#path1621"
       y="0"
       x="0" />
    <use
       height="100%"
       width="100%"
       transform="translate(2.0043804e-6,12.500002)"
       id="use1676"
       xlink:href="#use1674"
       y="0"
       x="0" />
    <use
       height="100%"
       width="100%"
       transform="translate(-4.99313,18.845881)"
       id="use1678"
       xlink:href="#path1663"
       y="0"
       x="0" />
    <use
       height="100%"
       width="100%"
       transform="translate(-37.5,-18.75)"
       id="use1680"
       xlink:href="#use1678"
       y="0"
       x="0" />
    <use
       height="100%"
       width="100%"
       transform="translate(42.49313,37.404119)"
       id="use1682"
       xlink:href="#use1680"
       y="0"
       x="0" />
  </g>
</svg>
